<?xml version="1.0" standalone="no"?><!DOCTYPE svg PUBLIC "-//W3C//DTD SVG 1.1//EN" "http://www.w3.org/Graphics/SVG/1.1/DTD/svg11.dtd"><svg height="506" node-id="1" sillyvg="true" template-height="506" template-width="693" version="1.1" viewBox="0 0 693 506" width="693" xmlns="http://www.w3.org/2000/svg" xmlns:xlink="http://www.w3.org/1999/xlink"><defs node-id="87"><linearGradient gradientUnits="objectBoundingBox" id="linearGradient-1" node-id="5" spreadMethod="pad" x1="-0.06714643" x2="1.3956016" y1="0.37178653" y2="0.6236414"><stop offset="0" stop-color="#fac65d"></stop><stop offset="1" stop-color="#ff5f25"></stop></linearGradient><linearGradient gradientUnits="objectBoundingBox" id="linearGradient-2" node-id="8" spreadMethod="pad" x1="0.8278764" x2="0.045029566" y1="0.464258" y2="0.5069907"><stop offset="0" stop-color="#fff0cc"></stop><stop offset="1" stop-color="#ffb398"></stop></linearGradient><linearGradient gradientUnits="objectBoundingBox" id="linearGradient-3" node-id="11" spreadMethod="pad" x1="-0.067146435" x2="1.3956017" y1="0.37365243" y2="0.62184215"><stop offset="0" stop-color="#fac65d"></stop><stop offset="1" stop-color="#ff5f25"></stop></linearGradient><linearGradient gradientUnits="objectBoundingBox" id="linearGradient-4" node-id="14" spreadMethod="pad" x1="0.8278764" x2="0.045029566" y1="0.46477813" y2="0.5068889"><stop offset="0" stop-color="#fff0cc"></stop><stop offset="1" stop-color="#ffb398"></stop></linearGradient><linearGradient gradientUnits="objectBoundingBox" id="linearGradient-5" node-id="17" spreadMethod="pad" x1="-0.1231961" x2="0.99999994" y1="-0.1275" y2="1.0926653"><stop offset="0" stop-color="#000000"></stop><stop offset="1" stop-color="#a76e57"></stop></linearGradient><linearGradient gradientUnits="objectBoundingBox" id="linearGradient-6" node-id="20" spreadMethod="pad" x1="0.8278764" x2="0.045029566" y1="0.11999522" y2="0.57432395"><stop offset="0" stop-color="#fff0cc"></stop><stop offset="1" stop-color="#ffb398"></stop></linearGradient><linearGradient gradientUnits="objectBoundingBox" id="linearGradient-7" node-id="23" spreadMethod="pad" x1="-0.12319611" x2="1" y1="-0.12702434" y2="1.0922161"><stop offset="0" stop-color="#000000"></stop><stop offset="1" stop-color="#a76e57"></stop></linearGradient><linearGradient gradientUnits="objectBoundingBox" id="linearGradient-8" node-id="26" spreadMethod="pad" x1="0.8278764" x2="0.045029566" y1="0.12028328" y2="0.5742676"><stop offset="0" stop-color="#fff0cc"></stop><stop offset="1" stop-color="#ffb398"></stop></linearGradient><linearGradient gradientUnits="objectBoundingBox" id="linearGradient-9" node-id="29" spreadMethod="pad" x1="-0.12319611" x2="1" y1="-0.12684639" y2="1.092048"><stop offset="0" stop-color="#000000"></stop><stop offset="1" stop-color="#a76e57"></stop></linearGradient><linearGradient gradientUnits="objectBoundingBox" id="linearGradient-10" node-id="32" spreadMethod="pad" x1="0.8278764" x2="0.045029566" y1="0.120391056" y2="0.5742465"><stop offset="0" stop-color="#fff0cc"></stop><stop offset="1" stop-color="#ffb398"></stop></linearGradient><linearGradient gradientUnits="objectBoundingBox" id="linearGradient-11" node-id="35" spreadMethod="pad" x1="-0.12319611" x2="1" y1="-0.12694211" y2="1.0921385"><stop offset="0" stop-color="#000000"></stop><stop offset="1" stop-color="#a76e57"></stop></linearGradient><linearGradient gradientUnits="objectBoundingBox" id="linearGradient-12" node-id="38" spreadMethod="pad" x1="0.8278764" x2="0.045029566" y1="0.12033308" y2="0.57425785"><stop offset="0" stop-color="#fff0cc"></stop><stop offset="1" stop-color="#ffb398"></stop></linearGradient><linearGradient gradientUnits="objectBoundingBox" id="linearGradient-13" node-id="41" spreadMethod="pad" x1="-0.12319611" x2="1" y1="-0.12754934" y2="1.092712"><stop offset="0" stop-color="#000000"></stop><stop offset="1" stop-color="#a76e57"></stop></linearGradient><linearGradient gradientUnits="objectBoundingBox" id="linearGradient-14" node-id="44" spreadMethod="pad" x1="0.8278764" x2="0.045029566" y1="0.11996536" y2="0.5743298"><stop offset="0" stop-color="#fff0cc"></stop><stop offset="1" stop-color="#ffb398"></stop></linearGradient><linearGradient gradientUnits="objectBoundingBox" id="linearGradient-17" node-id="48" spreadMethod="pad" x1="0.42470565" x2="1.6813463" y1="0.5338408" y2="1.1748128"><stop offset="0" stop-color="#ffc95c"></stop><stop offset="1" stop-color="#ff9c16"></stop></linearGradient><linearGradient gradientUnits="objectBoundingBox" id="linearGradient-18" node-id="51" spreadMethod="pad" x1="0.8489854" x2="0.8489854" y1="0.027190706" y2="1.2654854"><stop offset="0" stop-color="#000000"></stop><stop offset="1" stop-color="#a76e57"></stop></linearGradient><linearGradient gradientUnits="objectBoundingBox" id="linearGradient-19" node-id="54" spreadMethod="pad" x1="0.8278764" x2="0.045029566" y1="0.29798365" y2="0.53951174"><stop offset="0" stop-color="#fff0cc"></stop><stop offset="1" stop-color="#ffb398"></stop></linearGradient><linearGradient gradientUnits="objectBoundingBox" id="linearGradient-20" node-id="57" spreadMethod="pad" x1="0.75626373" x2="0.14440133" y1="0.11974761" y2="0.5743724"><stop offset="0" stop-color="#fff0cc"></stop><stop offset="1" stop-color="#ffb398"></stop></linearGradient><linearGradient gradientUnits="objectBoundingBox" id="linearGradient-21" node-id="60" spreadMethod="pad" x1="0.732751" x2="0.1770282" y1="0.11974761" y2="0.5743724"><stop offset="0" stop-color="#fff0cc"></stop><stop offset="1" stop-color="#ffb398"></stop></linearGradient><clipPath id="mask-16_10" node-id="74"><path d="M 356.45 224.31 L 342.27 217.98 L 328.49 210.23 L 315.30 200.27 L 306.47 192.17 L 296.67 181.57 L 288.85 169.14 L 280.94 144.37 L 273.04 134.93 L 262.24 129.62 L 254.21 129.62 L 233.80 117.53 L 203.47 102.64 L 233.80 130.85 L 246.76 141.81 L 252.85 155.89 L 260.25 165.56 L 269.82 171.75 L 273.75 173.47 L 320.87 238.22 L 303.36 240.74 L 288.85 241.30 L 286.68 240.98 L 282.70 240.21 L 278.21 239.30 L 274.56 238.54 L 273.04 238.22 L 271.34 237.20 L 267.43 234.96 L 263.13 232.71 L 261.23 231.92 L 260.25 231.69 L 257.26 231.28 L 252.72 230.37 L 248.58 229.45 L 246.76 229.04 L 236.17 229.84 L 218.98 234.70 L 185.94 249.97 L 139.52 261.55 L 103.13 264.69 L 52.96 260.95 L 25.77 254.75 L 13.80 253.50 L 8.00 254.75 L 8.00 258.27 L 21.92 268.63 L 49.34 282.25 L 68.58 287.03 L 107.29 287.49 L 80.72 294.58 L 52.09 294.58 L 43.39 294.58 L 43.39 299.00 L 51.65 306.48 L 62.64 310.01 L 76.31 312.58 L 89.28 313.62 L 104.94 310.62 L 133.16 302.94 L 108.95 317.68 L 95.97 326.72 L 92.43 333.26 L 96.88 337.06 L 105.45 336.61 L 115.54 334.38 L 142.87 324.19 L 168.32 310.62 L 152.75 326.72 L 142.28 333.26 L 134.36 339.27 L 133.67 344.41 L 136.89 348.34 L 145.15 347.79 L 155.64 343.49 L 176.40 332.64 L 198.23 320.57 L 183.24 343.49 L 177.22 354.39 L 180.93 358.15 L 185.94 358.97 L 191.12 356.44 L 211.99 336.61 L 220.26 326.72 L 211.30 352.84 L 210.20 358.97 L 215.37 361.90 L 220.72 360.15 L 228.49 352.34 L 246.34 330.55 L 244.52 351.66 L 242.22 358.58 L 242.76 360.08 L 243.36 361.01 L 243.97 361.54 L 245.31 361.93 L 247.95 361.90 L 253.42 359.34 L 262.24 348.76 L 275.84 330.55 L 270.86 350.85 L 269.34 358.97 L 271.69 363.43 L 275.39 362.56 L 282.29 357.57 L 289.59 347.02 L 295.92 335.80 L 297.85 355.43 L 298.83 363.87 L 308.24 366.38 L 311.88 363.87 L 319.39 351.66 L 326.81 332.64 L 330.30 348.34 L 331.73 351.66 L 342.27 352.84 L 344.56 351.66 L 347.58 347.02 L 350.67 332.64 L 350.67 310.62 L 359.73 337.72 L 363.38 340.42 L 369.53 339.98 L 373.20 335.21 L 374.50 329.85 L 375.27 318.69 L 375.27 294.58 L 381.96 317.68 L 386.23 322.48 L 391.18 322.48 L 396.75 318.12 L 398.09 314.56 L 398.57 290.30 L 417.86 304.93 L 420.58 306.82 L 422.52 307.87 L 423.87 308.32 L 425.28 308.40 L 427.51 308.07 L 430.88 307.12 L 433.67 301.72 L 428.35 286.21 L 452.64 296.65 L 459.17 293.24 L 460.82 288.19 L 449.30 267.17 L 463.60 272.58 L 474.00 274.28 L 483.62 273.64 L 487.91 269.47 L 487.65 265.14 L 463.60 250.84 L 490.33 254.75 L 499.07 252.78 L 503.66 250.47 L 504.43 250.64 L 504.74 250.35 L 504.72 249.41 L 504.69 247.67 L 505.33 245.55 L 495.59 239.66 L 481.70 228.35 L 506.48 231.69 L 516.39 230.27 L 524.44 229.04 L 524.97 228.33 L 525.96 227.03 L 526.49 226.33 L 527.09 222.31 L 509.68 212.98 L 499.07 207.33 L 528.37 207.33 L 541.17 204.60 L 545.37 200.27 L 546.48 197.66 L 545.37 193.82 L 542.38 193.13 L 507.89 186.50 L 539.65 175.49 L 555.76 168.65 L 562.68 165.43 L 564.79 164.22 L 566.18 162.87 L 567.55 160.93 L 568.88 158.27 L 566.57 153.10 L 563.31 152.32 L 526.49 158.27 L 524.92 156.90 L 552.71 146.00 L 576.64 133.26 L 586.44 125.57 L 588.74 119.72 L 587.38 117.53 L 582.71 115.94 L 539.65 126.63 L 565.60 110.67 L 579.82 97.97 L 588.74 86.74 L 594.30 75.01 L 596.96 66.43 L 596.96 58.03 L 592.37 55.95 L 579.82 72.79 L 566.57 84.40 L 551.09 93.37 L 570.19 69.31 L 582.71 45.32 L 587.38 30.88 L 590.94 12.82 L 590.94 4.19 L 588.74 2.00 L 582.71 7.43 L 568.88 30.24 L 552.15 54.55 L 528.37 82.15 L 512.50 95.73 L 495.59 109.78 L 473.12 124.21 L 445.75 138.14 L 419.64 148.38 L 408.68 159.42 L 403.19 169.14 L 393.64 188.64 L 379.49 206.05 L 366.27 217.98 L 359.73 222.31 L 356.45 224.31 Z" fill="#000000" fill-rule="evenodd" node-id="206" stroke="none" target-height="364.37958" target-width="588.96234" target-x="8" target-y="2"></path></clipPath><clipPath id="mask-16_9" node-id="74"><path d="M 356.45 224.31 L 342.27 217.98 L 328.49 210.23 L 315.30 200.27 L 306.47 192.17 L 296.67 181.57 L 288.85 169.14 L 280.94 144.37 L 273.04 134.93 L 262.24 129.62 L 254.21 129.62 L 233.80 117.53 L 203.47 102.64 L 233.80 130.85 L 246.76 141.81 L 252.85 155.89 L 260.25 165.56 L 269.82 171.75 L 273.75 173.47 L 320.87 238.22 L 303.36 240.74 L 288.85 241.30 L 286.68 240.98 L 282.70 240.21 L 278.21 239.30 L 274.56 238.54 L 273.04 238.22 L 271.34 237.20 L 267.43 234.96 L 263.13 232.71 L 261.23 231.92 L 260.25 231.69 L 257.26 231.28 L 252.72 230.37 L 248.58 229.45 L 246.76 229.04 L 236.17 229.84 L 218.98 234.70 L 185.94 249.97 L 139.52 261.55 L 103.13 264.69 L 52.96 260.95 L 25.77 254.75 L 13.80 253.50 L 8.00 254.75 L 8.00 258.27 L 21.92 268.63 L 49.34 282.25 L 68.58 287.03 L 107.29 287.49 L 80.72 294.58 L 52.09 294.58 L 43.39 294.58 L 43.39 299.00 L 51.65 306.48 L 62.64 310.01 L 76.31 312.58 L 89.28 313.62 L 104.94 310.62 L 133.16 302.94 L 108.95 317.68 L 95.97 326.72 L 92.43 333.26 L 96.88 337.06 L 105.45 336.61 L 115.54 334.38 L 142.87 324.19 L 168.32 310.62 L 152.75 326.72 L 142.28 333.26 L 134.36 339.27 L 133.67 344.41 L 136.89 348.34 L 145.15 347.79 L 155.64 343.49 L 176.40 332.64 L 198.23 320.57 L 183.24 343.49 L 177.22 354.39 L 180.93 358.15 L 185.94 358.97 L 191.12 356.44 L 211.99 336.61 L 220.26 326.72 L 211.30 352.84 L 210.20 358.97 L 215.37 361.90 L 220.72 360.15 L 228.49 352.34 L 246.34 330.55 L 244.52 351.66 L 242.22 358.58 L 242.76 360.08 L 243.36 361.01 L 243.97 361.54 L 245.31 361.93 L 247.95 361.90 L 253.42 359.34 L 262.24 348.76 L 275.84 330.55 L 270.86 350.85 L 269.34 358.97 L 271.69 363.43 L 275.39 362.56 L 282.29 357.57 L 289.59 347.02 L 295.92 335.80 L 297.85 355.43 L 298.83 363.87 L 308.24 366.38 L 311.88 363.87 L 319.39 351.66 L 326.81 332.64 L 330.30 348.34 L 331.73 351.66 L 342.27 352.84 L 344.56 351.66 L 347.58 347.02 L 350.67 332.64 L 350.67 310.62 L 359.73 337.72 L 363.38 340.42 L 369.53 339.98 L 373.20 335.21 L 374.50 329.85 L 375.27 318.69 L 375.27 294.58 L 381.96 317.68 L 386.23 322.48 L 391.18 322.48 L 396.75 318.12 L 398.09 314.56 L 398.57 290.30 L 417.86 304.93 L 420.58 306.82 L 422.52 307.87 L 423.87 308.32 L 425.28 308.40 L 427.51 308.07 L 430.88 307.12 L 433.67 301.72 L 428.35 286.21 L 452.64 296.65 L 459.17 293.24 L 460.82 288.19 L 449.30 267.17 L 463.60 272.58 L 474.00 274.28 L 483.62 273.64 L 487.91 269.47 L 487.65 265.14 L 463.60 250.84 L 490.33 254.75 L 499.07 252.78 L 503.66 250.47 L 504.43 250.64 L 504.74 250.35 L 504.72 249.41 L 504.69 247.67 L 505.33 245.55 L 495.59 239.66 L 481.70 228.35 L 506.48 231.69 L 516.39 230.27 L 524.44 229.04 L 524.97 228.33 L 525.96 227.03 L 526.49 226.33 L 527.09 222.31 L 509.68 212.98 L 499.07 207.33 L 528.37 207.33 L 541.17 204.60 L 545.37 200.27 L 546.48 197.66 L 545.37 193.82 L 542.38 193.13 L 507.89 186.50 L 539.65 175.49 L 555.76 168.65 L 562.68 165.43 L 564.79 164.22 L 566.18 162.87 L 567.55 160.93 L 568.88 158.27 L 566.57 153.10 L 563.31 152.32 L 526.49 158.27 L 524.92 156.90 L 552.71 146.00 L 576.64 133.26 L 586.44 125.57 L 588.74 119.72 L 587.38 117.53 L 582.71 115.94 L 539.65 126.63 L 565.60 110.67 L 579.82 97.97 L 588.74 86.74 L 594.30 75.01 L 596.96 66.43 L 596.96 58.03 L 592.37 55.95 L 579.82 72.79 L 566.57 84.40 L 551.09 93.37 L 570.19 69.31 L 582.71 45.32 L 587.38 30.88 L 590.94 12.82 L 590.94 4.19 L 588.74 2.00 L 582.71 7.43 L 568.88 30.24 L 552.15 54.55 L 528.37 82.15 L 512.50 95.73 L 495.59 109.78 L 473.12 124.21 L 445.75 138.14 L 419.64 148.38 L 408.68 159.42 L 403.19 169.14 L 393.64 188.64 L 379.49 206.05 L 366.27 217.98 L 359.73 222.31 L 356.45 224.31 Z" fill="#000000" fill-rule="evenodd" node-id="206" stroke="none" target-height="364.37958" target-width="588.96234" target-x="8" target-y="2"></path></clipPath><clipPath id="mask-16_8" node-id="74"><path d="M 356.45 224.31 L 342.27 217.98 L 328.49 210.23 L 315.30 200.27 L 306.47 192.17 L 296.67 181.57 L 288.85 169.14 L 280.94 144.37 L 273.04 134.93 L 262.24 129.62 L 254.21 129.62 L 233.80 117.53 L 203.47 102.64 L 233.80 130.85 L 246.76 141.81 L 252.85 155.89 L 260.25 165.56 L 269.82 171.75 L 273.75 173.47 L 320.87 238.22 L 303.36 240.74 L 288.85 241.30 L 286.68 240.98 L 282.70 240.21 L 278.21 239.30 L 274.56 238.54 L 273.04 238.22 L 271.34 237.20 L 267.43 234.96 L 263.13 232.71 L 261.23 231.92 L 260.25 231.69 L 257.26 231.28 L 252.72 230.37 L 248.58 229.45 L 246.76 229.04 L 236.17 229.84 L 218.98 234.70 L 185.94 249.97 L 139.52 261.55 L 103.13 264.69 L 52.96 260.95 L 25.77 254.75 L 13.80 253.50 L 8.00 254.75 L 8.00 258.27 L 21.92 268.63 L 49.34 282.25 L 68.58 287.03 L 107.29 287.49 L 80.72 294.58 L 52.09 294.58 L 43.39 294.58 L 43.39 299.00 L 51.65 306.48 L 62.64 310.01 L 76.31 312.58 L 89.28 313.62 L 104.94 310.62 L 133.16 302.94 L 108.95 317.68 L 95.97 326.72 L 92.43 333.26 L 96.88 337.06 L 105.45 336.61 L 115.54 334.38 L 142.87 324.19 L 168.32 310.62 L 152.75 326.72 L 142.28 333.26 L 134.36 339.27 L 133.67 344.41 L 136.89 348.34 L 145.15 347.79 L 155.64 343.49 L 176.40 332.64 L 198.23 320.57 L 183.24 343.49 L 177.22 354.39 L 180.93 358.15 L 185.94 358.97 L 191.12 356.44 L 211.99 336.61 L 220.26 326.72 L 211.30 352.84 L 210.20 358.97 L 215.37 361.90 L 220.72 360.15 L 228.49 352.34 L 246.34 330.55 L 244.52 351.66 L 242.22 358.58 L 242.76 360.08 L 243.36 361.01 L 243.97 361.54 L 245.31 361.93 L 247.95 361.90 L 253.42 359.34 L 262.24 348.76 L 275.84 330.55 L 270.86 350.85 L 269.34 358.97 L 271.69 363.43 L 275.39 362.56 L 282.29 357.57 L 289.59 347.02 L 295.92 335.80 L 297.85 355.43 L 298.83 363.87 L 308.24 366.38 L 311.88 363.87 L 319.39 351.66 L 326.81 332.64 L 330.30 348.34 L 331.73 351.66 L 342.27 352.84 L 344.56 351.66 L 347.58 347.02 L 350.67 332.64 L 350.67 310.62 L 359.73 337.72 L 363.38 340.42 L 369.53 339.98 L 373.20 335.21 L 374.50 329.85 L 375.27 318.69 L 375.27 294.58 L 381.96 317.68 L 386.23 322.48 L 391.18 322.48 L 396.75 318.12 L 398.09 314.56 L 398.57 290.30 L 417.86 304.93 L 420.58 306.82 L 422.52 307.87 L 423.87 308.32 L 425.28 308.40 L 427.51 308.07 L 430.88 307.12 L 433.67 301.72 L 428.35 286.21 L 452.64 296.65 L 459.17 293.24 L 460.82 288.19 L 449.30 267.17 L 463.60 272.58 L 474.00 274.28 L 483.62 273.64 L 487.91 269.47 L 487.65 265.14 L 463.60 250.84 L 490.33 254.75 L 499.07 252.78 L 503.66 250.47 L 504.43 250.64 L 504.74 250.35 L 504.72 249.41 L 504.69 247.67 L 505.33 245.55 L 495.59 239.66 L 481.70 228.35 L 506.48 231.69 L 516.39 230.27 L 524.44 229.04 L 524.97 228.33 L 525.96 227.03 L 526.49 226.33 L 527.09 222.31 L 509.68 212.98 L 499.07 207.33 L 528.37 207.33 L 541.17 204.60 L 545.37 200.27 L 546.48 197.66 L 545.37 193.82 L 542.38 193.13 L 507.89 186.50 L 539.65 175.49 L 555.76 168.65 L 562.68 165.43 L 564.79 164.22 L 566.18 162.87 L 567.55 160.93 L 568.88 158.27 L 566.57 153.10 L 563.31 152.32 L 526.49 158.27 L 524.92 156.90 L 552.71 146.00 L 576.64 133.26 L 586.44 125.57 L 588.74 119.72 L 587.38 117.53 L 582.71 115.94 L 539.65 126.63 L 565.60 110.67 L 579.82 97.97 L 588.74 86.74 L 594.30 75.01 L 596.96 66.43 L 596.96 58.03 L 592.37 55.95 L 579.82 72.79 L 566.57 84.40 L 551.09 93.37 L 570.19 69.31 L 582.71 45.32 L 587.38 30.88 L 590.94 12.82 L 590.94 4.19 L 588.74 2.00 L 582.71 7.43 L 568.88 30.24 L 552.15 54.55 L 528.37 82.15 L 512.50 95.73 L 495.59 109.78 L 473.12 124.21 L 445.75 138.14 L 419.64 148.38 L 408.68 159.42 L 403.19 169.14 L 393.64 188.64 L 379.49 206.05 L 366.27 217.98 L 359.73 222.31 L 356.45 224.31 Z" fill="#000000" fill-rule="evenodd" node-id="206" stroke="none" target-height="364.37958" target-width="588.96234" target-x="8" target-y="2"></path></clipPath><clipPath id="mask-16_7" node-id="74"><path d="M 356.45 224.31 L 342.27 217.98 L 328.49 210.23 L 315.30 200.27 L 306.47 192.17 L 296.67 181.57 L 288.85 169.14 L 280.94 144.37 L 273.04 134.93 L 262.24 129.62 L 254.21 129.62 L 233.80 117.53 L 203.47 102.64 L 233.80 130.85 L 246.76 141.81 L 252.85 155.89 L 260.25 165.56 L 269.82 171.75 L 273.75 173.47 L 320.87 238.22 L 303.36 240.74 L 288.85 241.30 L 286.68 240.98 L 282.70 240.21 L 278.21 239.30 L 274.56 238.54 L 273.04 238.22 L 271.34 237.20 L 267.43 234.96 L 263.13 232.71 L 261.23 231.92 L 260.25 231.69 L 257.26 231.28 L 252.72 230.37 L 248.58 229.45 L 246.76 229.04 L 236.17 229.84 L 218.98 234.70 L 185.94 249.97 L 139.52 261.55 L 103.13 264.69 L 52.96 260.95 L 25.77 254.75 L 13.80 253.50 L 8.00 254.75 L 8.00 258.27 L 21.92 268.63 L 49.34 282.25 L 68.58 287.03 L 107.29 287.49 L 80.72 294.58 L 52.09 294.58 L 43.39 294.58 L 43.39 299.00 L 51.65 306.48 L 62.64 310.01 L 76.31 312.58 L 89.28 313.62 L 104.94 310.62 L 133.16 302.94 L 108.95 317.68 L 95.97 326.72 L 92.43 333.26 L 96.88 337.06 L 105.45 336.61 L 115.54 334.38 L 142.87 324.19 L 168.32 310.62 L 152.75 326.72 L 142.28 333.26 L 134.36 339.27 L 133.67 344.41 L 136.89 348.34 L 145.15 347.79 L 155.64 343.49 L 176.40 332.64 L 198.23 320.57 L 183.24 343.49 L 177.22 354.39 L 180.93 358.15 L 185.94 358.97 L 191.12 356.44 L 211.99 336.61 L 220.26 326.72 L 211.30 352.84 L 210.20 358.97 L 215.37 361.90 L 220.72 360.15 L 228.49 352.34 L 246.34 330.55 L 244.52 351.66 L 242.22 358.58 L 242.76 360.08 L 243.36 361.01 L 243.97 361.54 L 245.31 361.93 L 247.95 361.90 L 253.42 359.34 L 262.24 348.76 L 275.84 330.55 L 270.86 350.85 L 269.34 358.97 L 271.69 363.43 L 275.39 362.56 L 282.29 357.57 L 289.59 347.02 L 295.92 335.80 L 297.85 355.43 L 298.83 363.87 L 308.24 366.38 L 311.88 363.87 L 319.39 351.66 L 326.81 332.64 L 330.30 348.34 L 331.73 351.66 L 342.27 352.84 L 344.56 351.66 L 347.58 347.02 L 350.67 332.64 L 350.67 310.62 L 359.73 337.72 L 363.38 340.42 L 369.53 339.98 L 373.20 335.21 L 374.50 329.85 L 375.27 318.69 L 375.27 294.58 L 381.96 317.68 L 386.23 322.48 L 391.18 322.48 L 396.75 318.12 L 398.09 314.56 L 398.57 290.30 L 417.86 304.93 L 420.58 306.82 L 422.52 307.87 L 423.87 308.32 L 425.28 308.40 L 427.51 308.07 L 430.88 307.12 L 433.67 301.72 L 428.35 286.21 L 452.64 296.65 L 459.17 293.24 L 460.82 288.19 L 449.30 267.17 L 463.60 272.58 L 474.00 274.28 L 483.62 273.64 L 487.91 269.47 L 487.65 265.14 L 463.60 250.84 L 490.33 254.75 L 499.07 252.78 L 503.66 250.47 L 504.43 250.64 L 504.74 250.35 L 504.72 249.41 L 504.69 247.67 L 505.33 245.55 L 495.59 239.66 L 481.70 228.35 L 506.48 231.69 L 516.39 230.27 L 524.44 229.04 L 524.97 228.33 L 525.96 227.03 L 526.49 226.33 L 527.09 222.31 L 509.68 212.98 L 499.07 207.33 L 528.37 207.33 L 541.17 204.60 L 545.37 200.27 L 546.48 197.66 L 545.37 193.82 L 542.38 193.13 L 507.89 186.50 L 539.65 175.49 L 555.76 168.65 L 562.68 165.43 L 564.79 164.22 L 566.18 162.87 L 567.55 160.93 L 568.88 158.27 L 566.57 153.10 L 563.31 152.32 L 526.49 158.27 L 524.92 156.90 L 552.71 146.00 L 576.64 133.26 L 586.44 125.57 L 588.74 119.72 L 587.38 117.53 L 582.71 115.94 L 539.65 126.63 L 565.60 110.67 L 579.82 97.97 L 588.74 86.74 L 594.30 75.01 L 596.96 66.43 L 596.96 58.03 L 592.37 55.95 L 579.82 72.79 L 566.57 84.40 L 551.09 93.37 L 570.19 69.31 L 582.71 45.32 L 587.38 30.88 L 590.94 12.82 L 590.94 4.19 L 588.74 2.00 L 582.71 7.43 L 568.88 30.24 L 552.15 54.55 L 528.37 82.15 L 512.50 95.73 L 495.59 109.78 L 473.12 124.21 L 445.75 138.14 L 419.64 148.38 L 408.68 159.42 L 403.19 169.14 L 393.64 188.64 L 379.49 206.05 L 366.27 217.98 L 359.73 222.31 L 356.45 224.31 Z" fill="#000000" fill-rule="evenodd" node-id="206" stroke="none" target-height="364.37958" target-width="588.96234" target-x="8" target-y="2"></path></clipPath><clipPath id="mask-16_6" node-id="74"><path d="M 356.45 224.31 L 342.27 217.98 L 328.49 210.23 L 315.30 200.27 L 306.47 192.17 L 296.67 181.57 L 288.85 169.14 L 280.94 144.37 L 273.04 134.93 L 262.24 129.62 L 254.21 129.62 L 233.80 117.53 L 203.47 102.64 L 233.80 130.85 L 246.76 141.81 L 252.85 155.89 L 260.25 165.56 L 269.82 171.75 L 273.75 173.47 L 320.87 238.22 L 303.36 240.74 L 288.85 241.30 L 286.68 240.98 L 282.70 240.21 L 278.21 239.30 L 274.56 238.54 L 273.04 238.22 L 271.34 237.20 L 267.43 234.96 L 263.13 232.71 L 261.23 231.92 L 260.25 231.69 L 257.26 231.28 L 252.72 230.37 L 248.58 229.45 L 246.76 229.04 L 236.17 229.84 L 218.98 234.70 L 185.94 249.97 L 139.52 261.55 L 103.13 264.69 L 52.96 260.95 L 25.77 254.75 L 13.80 253.50 L 8.00 254.75 L 8.00 258.27 L 21.92 268.63 L 49.34 282.25 L 68.58 287.03 L 107.29 287.49 L 80.72 294.58 L 52.09 294.58 L 43.39 294.58 L 43.39 299.00 L 51.65 306.48 L 62.64 310.01 L 76.31 312.58 L 89.28 313.62 L 104.94 310.62 L 133.16 302.94 L 108.95 317.68 L 95.97 326.72 L 92.43 333.26 L 96.88 337.06 L 105.45 336.61 L 115.54 334.38 L 142.87 324.19 L 168.32 310.62 L 152.75 326.72 L 142.28 333.26 L 134.36 339.27 L 133.67 344.41 L 136.89 348.34 L 145.15 347.79 L 155.64 343.49 L 176.40 332.64 L 198.23 320.57 L 183.24 343.49 L 177.22 354.39 L 180.93 358.15 L 185.94 358.97 L 191.12 356.44 L 211.99 336.61 L 220.26 326.72 L 211.30 352.84 L 210.20 358.97 L 215.37 361.90 L 220.72 360.15 L 228.49 352.34 L 246.34 330.55 L 244.52 351.66 L 242.22 358.58 L 242.76 360.08 L 243.36 361.01 L 243.97 361.54 L 245.31 361.93 L 247.95 361.90 L 253.42 359.34 L 262.24 348.76 L 275.84 330.55 L 270.86 350.85 L 269.34 358.97 L 271.69 363.43 L 275.39 362.56 L 282.29 357.57 L 289.59 347.02 L 295.92 335.80 L 297.85 355.43 L 298.83 363.87 L 308.24 366.38 L 311.88 363.87 L 319.39 351.66 L 326.81 332.64 L 330.30 348.34 L 331.73 351.66 L 342.27 352.84 L 344.56 351.66 L 347.58 347.02 L 350.67 332.64 L 350.67 310.62 L 359.73 337.72 L 363.38 340.42 L 369.53 339.98 L 373.20 335.21 L 374.50 329.85 L 375.27 318.69 L 375.27 294.58 L 381.96 317.68 L 386.23 322.48 L 391.18 322.48 L 396.75 318.12 L 398.09 314.56 L 398.57 290.30 L 417.86 304.93 L 420.58 306.82 L 422.52 307.87 L 423.87 308.32 L 425.28 308.40 L 427.51 308.07 L 430.88 307.12 L 433.67 301.72 L 428.35 286.21 L 452.64 296.65 L 459.17 293.24 L 460.82 288.19 L 449.30 267.17 L 463.60 272.58 L 474.00 274.28 L 483.62 273.64 L 487.91 269.47 L 487.65 265.14 L 463.60 250.84 L 490.33 254.75 L 499.07 252.78 L 503.66 250.47 L 504.43 250.64 L 504.74 250.35 L 504.72 249.41 L 504.69 247.67 L 505.33 245.55 L 495.59 239.66 L 481.70 228.35 L 506.48 231.69 L 516.39 230.27 L 524.44 229.04 L 524.97 228.33 L 525.96 227.03 L 526.49 226.33 L 527.09 222.31 L 509.68 212.98 L 499.07 207.33 L 528.37 207.33 L 541.17 204.60 L 545.37 200.27 L 546.48 197.66 L 545.37 193.82 L 542.38 193.13 L 507.89 186.50 L 539.65 175.49 L 555.76 168.65 L 562.68 165.43 L 564.79 164.22 L 566.18 162.87 L 567.55 160.93 L 568.88 158.27 L 566.57 153.10 L 563.31 152.32 L 526.49 158.27 L 524.92 156.90 L 552.71 146.00 L 576.64 133.26 L 586.44 125.57 L 588.74 119.72 L 587.38 117.53 L 582.71 115.94 L 539.65 126.63 L 565.60 110.67 L 579.82 97.97 L 588.74 86.74 L 594.30 75.01 L 596.96 66.43 L 596.96 58.03 L 592.37 55.95 L 579.82 72.79 L 566.57 84.40 L 551.09 93.37 L 570.19 69.31 L 582.71 45.32 L 587.38 30.88 L 590.94 12.82 L 590.94 4.19 L 588.74 2.00 L 582.71 7.43 L 568.88 30.24 L 552.15 54.55 L 528.37 82.15 L 512.50 95.73 L 495.59 109.78 L 473.12 124.21 L 445.75 138.14 L 419.64 148.38 L 408.68 159.42 L 403.19 169.14 L 393.64 188.64 L 379.49 206.05 L 366.27 217.98 L 359.73 222.31 L 356.45 224.31 Z" fill="#000000" fill-rule="evenodd" node-id="206" stroke="none" target-height="364.37958" target-width="588.96234" target-x="8" target-y="2"></path></clipPath><clipPath id="mask-16" node-id="74"><path d="M 348.45 222.31 L 334.27 215.98 L 320.49 208.23 L 307.30 198.27 L 298.47 190.17 L 288.67 179.57 L 280.85 167.14 L 272.94 142.37 L 265.04 132.93 L 254.24 127.62 L 246.21 127.62 L 225.80 115.53 L 195.47 100.64 L 225.80 128.85 L 238.76 139.81 L 244.85 153.89 L 252.25 163.56 L 261.82 169.75 L 265.75 171.47 L 312.87 236.22 L 295.36 238.74 C 286.60 239.11 281.76 239.30 280.85 239.30 C 279.48 239.30 265.04 236.22 265.04 236.22 C 265.04 236.22 254.35 229.69 252.25 229.69 C 250.15 229.69 238.76 227.04 238.76 227.04 C 238.76 227.04 235.23 227.31 228.17 227.84 L 210.98 232.70 L 177.94 247.97 L 131.52 259.55 L 95.13 262.69 L 44.96 258.95 L 17.77 252.75 L 5.80 251.50 L 0.00 252.75 L 0.00 256.27 L 13.92 266.63 L 41.34 280.25 L 60.58 285.03 L 99.29 285.49 L 72.72 292.58 L 44.09 292.58 L 35.39 292.58 L 35.39 297.00 L 43.65 304.48 L 54.64 308.01 L 68.31 310.58 L 81.28 311.62 L 96.94 308.62 L 125.16 300.94 L 100.95 315.68 L 87.97 324.72 L 84.43 331.26 L 88.88 335.06 L 97.45 334.61 L 107.54 332.38 L 134.87 322.19 L 160.32 308.62 L 144.75 324.72 L 134.28 331.26 L 126.36 337.27 L 125.67 342.41 L 128.89 346.34 L 137.15 345.79 L 147.64 341.49 L 168.40 330.64 L 190.23 318.57 L 175.24 341.49 L 169.22 352.39 L 172.93 356.15 L 177.94 356.97 L 183.12 354.44 L 203.99 334.61 L 212.26 324.72 L 203.30 350.84 L 202.20 356.97 L 207.37 359.90 L 212.72 358.15 L 220.49 350.34 L 238.34 328.55 L 236.52 349.66 L 234.22 356.58 C 234.65 358.13 235.23 359.12 235.97 359.54 C 236.71 359.97 238.04 360.09 239.95 359.90 L 245.42 357.34 L 254.24 346.76 L 267.84 328.55 L 262.86 348.85 L 261.34 356.97 L 263.69 361.43 L 267.39 360.56 L 274.29 355.57 L 281.59 345.02 L 287.92 333.80 L 289.85 353.43 L 290.83 361.87 L 300.24 364.38 L 303.88 361.87 L 311.39 349.66 L 318.81 330.64 L 322.30 346.34 L 323.73 349.66 L 334.27 350.84 L 336.56 349.66 L 339.59 345.02 L 342.67 330.64 L 342.67 308.62 L 351.73 335.72 L 355.38 338.42 L 361.53 337.98 L 365.20 333.21 L 366.50 327.85 L 367.27 316.69 L 367.27 292.58 L 373.96 315.68 L 378.23 320.48 L 383.18 320.48 L 388.75 316.12 L 390.09 312.56 L 390.57 288.30 L 409.86 302.93 C 412.46 304.90 414.47 306.03 415.87 306.32 C 417.27 306.61 419.61 306.21 422.88 305.12 L 425.67 299.72 L 420.35 284.21 L 444.64 294.65 L 451.17 291.24 L 452.82 286.19 L 441.30 265.17 L 455.60 270.58 L 466.00 272.28 L 475.62 271.64 L 479.91 267.47 L 479.65 263.14 L 455.60 248.84 L 482.33 252.75 L 491.07 250.78 L 495.66 248.47 C 496.60 248.91 496.96 248.55 496.72 247.41 C 496.49 246.27 496.69 244.99 497.33 243.55 L 487.59 237.66 L 473.70 226.35 L 498.48 229.69 L 508.39 228.27 C 513.76 227.45 516.44 227.04 516.44 227.04 C 516.44 227.04 518.49 224.33 518.49 224.33 C 518.49 224.33 518.69 222.99 519.09 220.31 L 501.68 210.98 L 491.07 205.33 L 520.37 205.33 L 533.17 202.60 L 537.37 198.27 C 538.11 196.53 538.48 195.66 538.48 195.66 C 538.48 195.66 538.11 194.38 537.37 191.82 L 534.38 191.13 L 499.89 184.50 L 531.65 173.49 C 546.85 167.19 555.24 163.43 556.79 162.22 C 558.35 161.01 559.71 159.02 560.88 156.27 L 558.57 151.10 L 555.31 150.32 L 518.49 156.27 L 516.92 154.90 L 544.71 144.00 L 568.64 131.26 L 578.44 123.57 L 580.74 117.72 L 579.38 115.53 L 574.71 113.94 L 531.65 124.63 L 557.60 108.67 L 571.82 95.97 L 580.74 84.74 L 586.30 73.01 L 588.96 64.43 L 588.96 56.03 L 584.37 53.95 L 571.82 70.79 L 558.57 82.40 L 543.09 91.37 L 562.19 67.31 L 574.71 43.32 L 579.38 28.88 L 582.94 10.82 L 582.94 2.19 L 580.74 -0.00 L 574.71 5.43 L 560.88 28.24 L 544.15 52.55 L 520.37 80.15 L 504.50 93.73 L 487.59 107.78 L 465.12 122.21 L 437.75 136.14 L 411.64 146.38 L 400.68 157.42 L 395.19 167.14 L 385.64 186.64 L 371.49 204.05 L 358.27 215.98 L 351.73 220.31 L 348.45 222.31 Z" fill="#000000" fill-rule="evenodd" node-id="206" stroke="none" target-height="364.37958" target-width="588.96234" target-x="0" target-y="-0"></path></clipPath></defs><g node-id="266"><g node-id="267"><path d="M 467.78 303.27 L 617.89 391.66 L 622.21 393.94 L 626.81 395.89 L 631.68 397.39 L 637.24 398.44 L 676.49 400.76 L 678.77 400.40 L 679.88 399.81 L 680.29 399.07 L 680.20 398.54 L 679.63 398.03 L 678.25 397.51 L 675.46 397.07 L 638.25 392.71 L 636.52 392.06 L 635.66 391.50 L 635.33 391.03 L 635.37 390.54 L 635.92 389.95 L 637.45 389.15 L 651.18 385.78 L 652.11 385.05 L 652.37 384.47 L 652.19 383.92 L 651.67 383.52 L 650.58 383.29 L 648.59 383.38 L 630.04 386.52 L 626.90 386.89 L 624.56 387.02 L 622.41 386.81 L 620.43 386.15 L 477.52 298.88 L 465.07 298.02 L 467.78 303.27 Z" fill="url(#linearGradient-1)" fill-rule="evenodd" group-id="1,2" id="路径-363备份" node-id="65" stroke="url(#linearGradient-2)" stroke-linecap="butt" stroke-width="1.9999999" target-height="102.73273" target-width="215.21893" target-x="465.0716" target-y="298.02454"></path></g><path d="M 448.59 320.98 L 612.12 381.65 L 616.78 383.14 L 621.67 384.25 L 626.73 384.88 L 632.40 384.95 L 671.54 380.45 L 673.74 379.71 L 674.72 378.94 L 675.00 378.14 L 674.82 377.64 L 674.17 377.23 L 672.71 376.97 L 669.89 377.01 L 632.40 379.16 L 630.58 378.82 L 629.63 378.43 L 629.23 378.03 L 629.18 377.54 L 629.63 376.86 L 630.99 375.82 L 643.96 370.14 L 644.75 369.27 L 644.90 368.66 L 644.63 368.15 L 644.04 367.85 L 642.93 367.82 L 640.98 368.24 L 623.22 374.52 L 620.18 375.43 L 617.90 375.95 L 615.74 376.12 L 613.67 375.82 L 457.43 315.00 L 445.00 316.31 L 448.59 320.98 Z" fill="url(#linearGradient-3)" fill-rule="evenodd" group-id="1" id="路径-363" node-id="66" stroke="url(#linearGradient-4)" stroke-linecap="butt" stroke-width="2" target-height="69.953064" target-width="230" target-x="445" target-y="315"></path><path d="M 455.89 282.10 L 462.65 284.47 L 469.57 286.38 L 476.66 287.82 L 483.93 288.80 L 491.42 289.31 L 498.87 289.34 L 506.32 288.90 L 513.81 287.99 L 521.33 286.59 L 528.91 284.70 L 525.20 281.20 L 520.76 277.69 L 515.51 274.16 L 509.37 270.62 L 502.22 267.09 L 496.49 264.74 L 490.35 262.78 L 483.77 261.24 L 476.70 260.13 L 469.10 259.47 L 460.95 259.30" fill="url(#linearGradient-5)" fill-rule="evenodd" group-id="1,3" id="路径-357备份-3" node-id="67" stroke="url(#linearGradient-6)" stroke-linecap="round" stroke-width="2.9999998" target-height="30.039185" target-width="73.02261" target-x="455.88956" target-y="259.30225"></path><path d="M 394.89 299.19 L 397.30 305.94 L 400.17 312.51 L 403.51 318.92 L 407.32 325.19 L 411.64 331.32 L 416.30 337.12 L 421.34 342.64 L 426.76 347.87 L 432.58 352.84 L 438.82 357.53 L 439.21 352.45 L 439.15 346.79 L 438.59 340.49 L 437.47 333.50 L 435.72 325.72 L 433.95 319.79 L 431.60 313.80 L 428.66 307.71 L 425.07 301.53 L 420.80 295.22 L 415.80 288.77" fill="url(#linearGradient-7)" fill-rule="evenodd" group-id="1,4" id="路径-357" node-id="68" stroke="url(#linearGradient-8)" stroke-linecap="round" stroke-width="3" target-height="68.759674" target-width="44.31717" target-x="394.88873" target-y="288.77316"></path><path d="M 417.94 295.38 L 420.35 302.12 L 423.22 308.69 L 426.56 315.10 L 430.37 321.37 L 434.69 327.50 L 439.35 333.30 L 444.39 338.82 L 449.81 344.05 L 455.63 349.02 L 461.87 353.71 L 462.26 348.63 L 462.20 342.97 L 461.64 336.67 L 460.52 329.68 L 458.77 321.90 L 457.00 315.97 L 454.65 309.98 L 451.71 303.89 L 448.12 297.71 L 443.85 291.40 L 438.85 284.95" fill="url(#linearGradient-7)" fill-rule="evenodd" group-id="1,5" id="路径-357备份-4" node-id="69" stroke="url(#linearGradient-8)" stroke-linecap="round" stroke-width="3" target-height="68.759705" target-width="44.3172" target-x="417.93823" target-y="284.9541"></path><path d="M 421.65 295.77 L 426.32 301.20 L 431.36 306.31 L 436.77 311.10 L 442.58 315.59 L 448.81 319.77 L 455.25 323.51 L 461.93 326.86 L 468.87 329.81 L 476.08 332.36 L 483.59 334.51 L 482.13 329.62 L 480.04 324.36 L 477.26 318.68 L 473.71 312.55 L 469.29 305.92 L 465.50 301.02 L 461.16 296.26 L 456.23 291.64 L 450.67 287.14 L 444.42 282.78 L 437.44 278.56" fill="url(#linearGradient-9)" fill-rule="evenodd" group-id="1,6" id="路径-357备份" node-id="70" stroke="url(#linearGradient-10)" stroke-linecap="round" stroke-width="3" target-height="55.951447" target-width="61.937164" target-x="421.65192" target-y="278.55542"></path><path d="M 439.25 286.15 L 444.71 290.78 L 450.49 295.04 L 456.59 298.93 L 463.03 302.45 L 469.83 305.60 L 476.78 308.30 L 483.90 310.56 L 491.21 312.38 L 498.74 313.77 L 506.49 314.72 L 504.28 310.12 L 501.40 305.25 L 497.76 300.08 L 493.29 294.58 L 487.89 288.72 L 483.39 284.47 L 478.35 280.45 L 472.76 276.66 L 466.56 273.09 L 459.71 269.76 L 452.15 266.67" fill="url(#linearGradient-11)" fill-rule="evenodd" group-id="1,7" id="路径-357备份-2" node-id="71" stroke="url(#linearGradient-12)" stroke-linecap="round" stroke-width="3" target-height="48.049255" target-width="67.239075" target-x="439.25253" target-y="266.6742"></path><path d="M 384.59 291.50 L 384.80 298.65 L 385.50 305.79 L 386.69 312.92 L 388.38 320.06 L 390.59 327.22 L 393.23 334.18 L 396.31 340.98 L 399.85 347.63 L 403.85 354.15 L 408.33 360.54 L 410.27 355.82 L 411.97 350.42 L 413.38 344.26 L 414.48 337.26 L 415.23 329.33 L 415.37 323.15 L 414.99 316.72 L 414.07 310.02 L 412.58 303.03 L 410.47 295.71 L 407.71 288.04" fill="url(#linearGradient-13)" fill-rule="evenodd" group-id="1,8" id="路径-357" node-id="72" stroke="url(#linearGradient-14)" stroke-linecap="round" stroke-width="3" target-height="72.50073" target-width="30.775543" target-x="384.59415" target-y="288.04184"></path><path d="M 356.45 224.31 L 342.27 217.98 L 328.49 210.23 L 315.30 200.27 L 306.47 192.17 L 296.67 181.57 L 288.85 169.14 L 280.94 144.37 L 273.04 134.93 L 262.24 129.62 L 254.21 129.62 L 233.80 117.53 L 203.47 102.64 L 233.80 130.85 L 246.76 141.81 L 252.85 155.89 L 260.25 165.56 L 269.82 171.75 L 273.75 173.47 L 320.87 238.22 L 303.36 240.74 L 288.85 241.30 L 286.68 240.98 L 282.70 240.21 L 278.21 239.30 L 274.56 238.54 L 273.04 238.22 L 271.34 237.20 L 267.43 234.96 L 263.13 232.71 L 261.23 231.92 L 260.25 231.69 L 257.26 231.28 L 252.72 230.37 L 248.58 229.45 L 246.76 229.04 L 236.17 229.84 L 218.98 234.70 L 185.94 249.97 L 139.52 261.55 L 103.13 264.69 L 52.96 260.95 L 25.77 254.75 L 13.80 253.50 L 8.00 254.75 L 8.00 258.27 L 21.92 268.63 L 49.34 282.25 L 68.58 287.03 L 107.29 287.49 L 80.72 294.58 L 52.09 294.58 L 43.39 294.58 L 43.39 299.00 L 51.65 306.48 L 62.64 310.01 L 76.31 312.58 L 89.28 313.62 L 104.94 310.62 L 133.16 302.94 L 108.95 317.68 L 95.97 326.72 L 92.43 333.26 L 96.88 337.06 L 105.45 336.61 L 115.54 334.38 L 142.87 324.19 L 168.32 310.62 L 152.75 326.72 L 142.28 333.26 L 134.36 339.27 L 133.67 344.41 L 136.89 348.34 L 145.15 347.79 L 155.64 343.49 L 176.40 332.64 L 198.23 320.57 L 183.24 343.49 L 177.22 354.39 L 180.93 358.15 L 185.94 358.97 L 191.12 356.44 L 211.99 336.61 L 220.26 326.72 L 211.30 352.84 L 210.20 358.97 L 215.37 361.90 L 220.72 360.15 L 228.49 352.34 L 246.34 330.55 L 244.52 351.66 L 242.22 358.58 L 242.76 360.08 L 243.36 361.01 L 243.97 361.54 L 245.31 361.93 L 247.95 361.90 L 253.42 359.34 L 262.24 348.76 L 275.84 330.55 L 270.86 350.85 L 269.34 358.97 L 271.69 363.43 L 275.39 362.56 L 282.29 357.57 L 289.59 347.02 L 295.92 335.80 L 297.85 355.43 L 298.83 363.87 L 308.24 366.38 L 311.88 363.87 L 319.39 351.66 L 326.81 332.64 L 330.30 348.34 L 331.73 351.66 L 342.27 352.84 L 344.56 351.66 L 347.58 347.02 L 350.67 332.64 L 350.67 310.62 L 359.73 337.72 L 363.38 340.42 L 369.53 339.98 L 373.20 335.21 L 374.50 329.85 L 375.27 318.69 L 375.27 294.58 L 381.96 317.68 L 386.23 322.48 L 391.18 322.48 L 396.75 318.12 L 398.09 314.56 L 398.57 290.30 L 417.86 304.93 L 420.58 306.82 L 422.52 307.87 L 423.87 308.32 L 425.28 308.40 L 427.51 308.07 L 430.88 307.12 L 433.67 301.72 L 428.35 286.21 L 452.64 296.65 L 459.17 293.24 L 460.82 288.19 L 449.30 267.17 L 463.60 272.58 L 474.00 274.28 L 483.62 273.64 L 487.91 269.47 L 487.65 265.14 L 463.60 250.84 L 490.33 254.75 L 499.07 252.78 L 503.66 250.47 L 504.43 250.64 L 504.74 250.35 L 504.72 249.41 L 504.69 247.67 L 505.33 245.55 L 495.59 239.66 L 481.70 228.35 L 506.48 231.69 L 516.39 230.27 L 524.44 229.04 L 524.97 228.33 L 525.96 227.03 L 526.49 226.33 L 527.09 222.31 L 509.68 212.98 L 499.07 207.33 L 528.37 207.33 L 541.17 204.60 L 545.37 200.27 L 546.48 197.66 L 545.37 193.82 L 542.38 193.13 L 507.89 186.50 L 539.65 175.49 L 555.76 168.65 L 562.68 165.43 L 564.79 164.22 L 566.18 162.87 L 567.55 160.93 L 568.88 158.27 L 566.57 153.10 L 563.31 152.32 L 526.49 158.27 L 524.92 156.90 L 552.71 146.00 L 576.64 133.26 L 586.44 125.57 L 588.74 119.72 L 587.38 117.53 L 582.71 115.94 L 539.65 126.63 L 565.60 110.67 L 579.82 97.97 L 588.74 86.74 L 594.30 75.01 L 596.96 66.43 L 596.96 58.03 L 592.37 55.95 L 579.82 72.79 L 566.57 84.40 L 551.09 93.37 L 570.19 69.31 L 582.71 45.32 L 587.38 30.88 L 590.94 12.82 L 590.94 4.19 L 588.74 2.00 L 582.71 7.43 L 568.88 30.24 L 552.15 54.55 L 528.37 82.15 L 512.50 95.73 L 495.59 109.78 L 473.12 124.21 L 445.75 138.14 L 419.64 148.38 L 408.68 159.42 L 403.19 169.14 L 393.64 188.64 L 379.49 206.05 L 366.27 217.98 L 359.73 222.31 L 356.45 224.31 Z" fill="#ffffff" fill-rule="evenodd" group-id="1,9,11" node-id="244" stroke="none" target-height="364.37958" target-width="588.96234" target-x="8" target-y="2"></path><g clip-path="url(#mask-16_6)" group-id="1,9,12" node-id="247"><path d="M 254.17 130.29 L 253.83 132.61 L 253.08 134.66 L 251.92 136.48 L 249.68 138.90 L 247.13 140.91 L 184.59 102.66 L 185.53 92.93 L 186.31 88.08 L 186.91 86.12 L 187.34 85.58 L 190.46 85.10 L 196.80 84.58 L 204.49 84.22 L 211.66 84.20 L 214.67 84.41 L 216.45 84.73 L 218.98 85.58 L 221.79 86.77 L 227.21 89.63 L 229.69 91.20 L 231.67 92.63 L 233.20 94.33 L 236.58 99.33 L 243.04 110.20 L 254.17 130.29 Z" fill="url(#linearGradient-17)" fill-rule="evenodd" group-id="1,9,12" id="路径-360" node-id="77" stroke="#ffb499" stroke-linecap="butt" stroke-width="1" target-height="56.710327" target-width="69.58052" target-x="184.58728" target-y="84.20331"></path></g><g clip-path="url(#mask-16_7)" group-id="1,9,13" node-id="251"><path d="M 254.17 128.80 L 257.15 134.77 L 260.43 140.15 L 264.00 144.99 L 267.86 149.32 L 272.02 153.18 L 276.49 156.59 L 281.28 159.57 L 286.43 162.12 L 290.64 163.71 L 293.67 164.41 L 295.80 164.46 L 297.28 164.08 L 298.32 163.34 L 299.01 162.22 L 299.35 160.59 L 299.23 158.22 L 298.45 154.86 L 296.72 150.17 L 293.74 143.82 L 282.36 133.81 L 279.24 131.23 L 276.27 129.54 L 271.54 127.20 L 266.92 125.13 L 265.03 124.41 L 264.28 124.24 L 263.27 124.48 L 260.41 125.68 L 254.17 128.80 Z" fill="#ff2727" fill-rule="evenodd" group-id="1,9,13" node-id="253" stroke="none" target-height="40.229485" target-width="45.180954" target-x="254.1678" target-y="124.23545"></path></g><g clip-path="url(#mask-16_8)" group-id="1,9,14" node-id="256"><path d="M 261.80 131.26 L 266.27 138.07 L 270.52 143.61 L 274.58 148.04 L 278.44 151.51 L 282.15 154.15 L 285.72 156.05 L 288.73 157.12 L 290.82 157.34 L 292.27 157.00 L 293.31 156.19 L 294.01 154.83 L 294.33 152.66 L 294.08 149.32 L 292.96 144.38 L 281.94 134.23 L 278.10 130.99 L 277.28 130.51 L 275.07 129.75 L 271.53 128.35 L 269.74 127.78 L 268.58 127.60 L 267.30 127.86 L 265.17 128.92 L 261.80 131.26 Z" fill="#ff4646" fill-rule="evenodd" group-id="1,9,14" id="路径-358" node-id="79" stroke="none" target-height="29.748222" target-width="32.53488" target-x="261.79538" target-y="127.59612"></path></g><g clip-path="url(#mask-16_9)" group-id="1,9,15" node-id="260"><path d="M 250.21 139.07 L 255.49 146.89 L 259.96 152.82 L 263.73 157.18 L 267.85 161.14 L 272.28 164.60 L 277.02 167.57 L 283.87 175.43 L 291.15 184.39 L 298.86 194.53 L 304.25 202.03 L 308.53 208.30 L 315.39 218.85 L 320.25 226.12 L 323.14 229.73 L 326.29 233.10 L 329.71 236.24 L 308.42 238.22 L 236.17 159.97 L 236.75 158.86 L 238.06 156.31 L 239.48 153.51 L 240.40 151.64 L 242.12 148.38 L 243.82 145.63 L 246.54 141.67 L 246.86 141.42 L 247.83 140.91 L 248.90 140.19 L 250.21 139.07 Z" fill="#1c1313" fill-rule="evenodd" group-id="1,9,15" id="路径-361" node-id="80" stroke="none" target-height="99.15022" target-width="93.541" target-x="236.17094" target-y="139.06839"></path></g><g clip-path="url(#mask-16_10)" group-id="1,9,16" node-id="264"><path d="M 565.45 22.70 L 577.63 65.53 L 571.54 108.75 L 552.90 148.38 L 536.50 180.71 L 516.31 209.02 L 499.10 232.26 L 479.55 255.05 L 464.21 273.68 L 439.49 289.80 L 411.05 301.49 L 382.91 318.15 L 359.33 332.32 L 329.71 346.23 L 297.88 350.70 L 269.45 350.70 L 241.02 346.23 L 209.92 346.23 L 181.74 340.00 L 146.93 329.34 L 102.91 318.15 L 71.33 293.79 L 54.55 248.67 L -7.62 246.20 L -7.83 249.78 L -8.33 259.11 L -8.91 272.08 L -9.33 286.58 L -9.41 300.50 L -9.23 306.81 L -8.91 311.73 L -8.30 316.02 L -7.62 318.15 L -6.74 319.39 L -5.07 321.16 L -2.30 323.60 L 2.21 327.11 L 8.22 331.40 L 14.68 335.73 L 21.92 340.35 L 29.35 344.88 L 36.79 349.24 L 44.17 353.36 L 50.81 356.86 L 57.15 359.95 L 61.97 362.01 L 65.37 363.11 L 72.21 364.92 L 90.65 369.18 L 115.17 374.39 L 143.61 380.18 L 173.86 386.14 L 203.76 391.89 L 231.19 397.04 L 254.01 401.20 L 270.09 403.98 L 277.28 404.99 L 283.80 405.65 L 297.44 407.36 L 316.17 409.77 L 337.94 412.51 L 360.73 415.22 L 382.47 417.52 L 401.15 419.05 L 409.08 419.43 L 414.71 419.45 L 418.30 419.21 L 420.23 418.81 L 421.12 418.35 L 426.86 413.48 L 435.64 406.67 L 440.78 402.94 L 446.42 399.03 L 452.24 395.22 L 458.15 391.62 L 464.12 388.31 L 469.77 385.56 L 476.92 382.12 L 485.09 377.59 L 490.51 374.24 L 496.19 370.36 L 502.16 365.91 L 507.90 361.22 L 513.75 355.93 L 519.71 350.00 L 525.36 343.80 L 530.95 336.92 L 536.50 329.34 L 540.64 323.03 L 544.37 316.88 L 547.69 310.90 L 552.24 301.90 L 555.89 293.80 L 559.06 285.99 L 561.39 279.62 L 564.48 269.95 L 565.45 266.37 L 566.90 261.56 L 570.89 248.36 L 576.85 228.61 L 584.22 204.16 L 592.43 176.85 L 600.92 148.54 L 609.13 121.05 L 616.50 96.24 L 622.46 75.96 L 626.45 62.04 L 627.90 56.33 L 627.28 51.79 L 625.58 42.60 L 623.01 30.70 L 619.79 18.05 L 617.98 11.93 L 616.16 6.59 L 614.15 1.71 L 612.32 -1.71 L 610.86 -3.64 L 609.61 -4.60 L 608.50 -4.91 L 605.67 -5.10 L 601.94 -5.69 L 593.86 -7.53 L 585.98 -9.73 L 580.00 -11.58 L 577.63 -12.35 L 565.45 22.70 Z" fill="url(#linearGradient-18)" fill-rule="evenodd" group-id="1,9,16" id="路径-362" node-id="81" stroke="none" target-height="431.80573" target-width="637.3065" target-x="-9.406025" target-y="-12.352348"></path></g><path d="M 317.95 237.25 L 304.77 217.09 L 294.12 201.59 L 283.52 187.11 L 272.29 172.77 L 268.23 171.04 L 264.45 168.82 L 260.91 166.10 L 257.59 162.83 L 254.48 158.96 L 250.94 153.65 L 248.34 148.98 L 246.52 144.87 L 245.38 141.24 L 196.14 96.59 L 253.38 128.96 L 257.67 129.04 L 261.75 129.71 L 265.66 130.98 L 269.44 132.87 L 273.12 135.42 L 276.74 138.70 L 279.90 142.37 L 282.42 146.16 L 284.34 150.10 L 285.68 154.22 L 286.47 158.56 L 286.69 163.16 L 287.56 166.10 L 288.91 169.29 L 290.81 172.77 L 294.47 178.12 L 300.57 185.70 L 304.61 190.54 L 309.30 195.36 L 314.67 200.17 L 320.78 204.97 L 327.71 209.76 L 335.51 214.53 L 343.08 218.61 L 351.16 222.39 L 359.77 225.86 L 368.94 229.01 L 378.72 231.83 L 389.12 234.30" fill="none" group-id="1,10" id="路径-355" node-id="83" stroke="url(#linearGradient-19)" stroke-linecap="round" stroke-width="3" target-height="140.66068" target-width="192.98138" target-x="196.14203" target-y="96.593994"></path><path d="M 357.62 223.78 L 368.42 215.82 L 376.53 209.22 L 382.39 203.79 L 386.46 199.36 L 390.22 194.37 L 393.53 189.09 L 396.40 183.49 L 398.83 177.55 L 400.39 172.44 L 402.30 167.83 L 404.55 163.68 L 407.12 159.93 L 410.04 156.57 L 413.30 153.57 L 417.53 150.36 L 422.29 147.32 L 427.61 144.44 L 433.53 141.73 L 440.12 139.22 L 450.90 134.86 L 461.40 130.00 L 471.63 124.65 L 481.60 118.78 L 491.33 112.40 L 500.82 105.49 L 510.09 98.04 L 519.13 90.04 L 527.90 81.57 L 536.12 72.97 L 543.82 64.22 L 551.00 55.33 L 557.67 46.29 L 563.87 37.10 L 569.59 27.74 L 574.84 18.21 L 580.10 10.31 L 583.78 5.63 L 586.27 3.18 L 587.92 2.18 L 589.02 2.02 L 589.83 2.43 L 590.48 3.53 L 590.91 5.78 L 590.90 9.87 L 590.13 16.67 L 588.19 27.20 L 586.22 35.25 L 583.73 43.02 L 580.72 50.54 L 577.18 57.82 L 573.11 64.88 L 568.49 71.74 L 563.30 78.41 L 557.52 84.89 L 551.11 91.20 L 544.04 97.34 L 536.28 103.30 L 545.76 97.87 L 553.86 92.81 L 560.72 88.11 L 566.47 83.74 L 572.07 78.93 L 577.36 73.77 L 582.34 68.27 L 587.03 62.40 L 590.09 58.89 L 592.27 57.03 L 593.81 56.26 L 594.93 56.19 L 595.81 56.63 L 596.57 57.69 L 597.17 59.70 L 597.34 61.39 L 597.25 63.66 L 596.82 66.63 L 595.66 71.15 L 593.59 76.70 L 591.86 80.39 L 589.68 84.35 L 586.98 88.61 L 584.04 92.67 L 580.55 96.83 L 576.50 101.10 L 572.17 105.08 L 567.23 109.01 L 561.63 112.89 L 548.97 120.66 L 538.62 126.41 L 530.23 130.48 L 523.52 133.17 L 518.21 134.75 L 570.01 118.12 L 574.68 116.59 L 578.42 115.81 L 581.38 115.60 L 583.73 115.86 L 585.58 116.48 L 587.04 117.43 L 588.19 118.72 L 588.65 119.93 L 588.56 121.32 L 587.81 123.03 L 586.67 124.62 L 585.01 126.44 L 582.71 128.51 L 578.95 131.40 L 574.26 134.55 L 569.26 137.56 L 563.81 140.57 L 558.23 143.41 L 552.71 146.00 L 543.49 149.91 L 534.14 153.42 L 524.63 156.53 L 514.97 159.25 L 523.81 158.96 L 531.44 158.44 L 537.98 157.71 L 544.46 156.67 L 550.92 155.29 L 557.36 153.57 L 560.70 152.63 L 563.22 152.41 L 565.12 152.72 L 566.56 153.47 L 567.65 154.64 L 568.44 156.34 L 568.88 158.75 L 568.70 159.96 L 567.86 161.39 L 566.07 163.17 L 562.89 165.40 L 557.80 168.18 L 550.16 171.61 L 539.25 175.82 L 524.29 180.92 L 504.37 187.05 L 540.12 192.35 L 542.80 192.96 L 544.60 193.80 L 545.74 194.81 L 546.39 196.00 L 546.60 197.43 L 546.31 199.22 L 545.36 201.52 L 544.42 202.70 L 542.70 203.86 L 539.88 204.97 L 535.56 205.98 L 529.25 206.78 L 520.39 207.25 L 508.36 207.25 L 492.46 206.62 L 521.24 217.91 L 524.30 219.62 L 526.08 221.13 L 526.98 222.47 L 527.24 223.73 L 526.95 225.01 L 526.01 226.42 L 524.14 228.03 L 522.36 228.96 L 519.61 229.75 L 515.55 230.30 L 509.79 230.50 L 501.86 230.19 L 491.28 229.20 L 477.48 227.35 L 502.85 243.67 L 504.47 245.17 L 505.22 246.49 L 505.35 247.72 L 504.92 248.98 L 503.76 250.38 L 501.56 251.99 L 499.59 252.79 L 496.32 253.35 L 491.22 253.50 L 483.68 253.01 L 472.98 251.61 L 458.29 249.00 L 481.53 261.54 L 485.10 264.11 L 487.07 266.06 L 487.96 267.55 L 488.14 268.72 L 487.78 269.74 L 486.79 270.71 L 484.87 271.66 L 481.53 272.53 L 477.33 273.07 L 472.78 273.13 L 467.82 272.67 L 462.39 271.64 L 456.45 269.97 L 449.94 267.58" fill="none" group-id="1,10" id="路径-356" node-id="84" stroke="url(#linearGradient-20)" stroke-linecap="round" stroke-width="3" target-height="271.1097" target-width="239.72577" target-x="357.61554" target-y="2.0185857"></path><path d="M 327.24 236.33 L 314.05 238.82 L 303.71 240.26 L 295.75 240.86 L 289.74 240.81 L 283.54 240.17 L 277.43 239.00 L 271.39 237.28 L 265.39 235.02 L 260.60 232.68 L 255.94 230.93 L 251.37 229.74 L 246.88 229.08 L 242.44 228.92 L 238.02 229.26 L 232.80 230.18 L 227.34 231.59 L 221.61 233.52 L 215.59 236.02 L 209.26 239.14 L 198.73 244.07 L 188.03 248.45 L 177.14 252.30 L 166.06 255.61 L 154.76 258.39 L 143.25 260.63 L 131.50 262.35 L 119.49 263.51 L 107.33 264.17 L 95.44 264.33 L 83.82 264.00 L 72.43 263.20 L 61.28 261.93 L 50.35 260.20 L 39.62 258.01 L 29.09 255.36 L 19.74 253.83 L 13.81 253.33 L 10.33 253.49 L 8.47 254.01 L 7.60 254.71 L 7.35 255.59 L 7.71 256.82 L 9.06 258.67 L 12.05 261.45 L 17.53 265.52 L 26.54 271.28 L 33.76 275.32 L 41.13 278.80 L 48.66 281.72 L 56.39 284.09 L 64.31 285.92 L 72.47 287.22 L 80.87 287.96 L 89.55 288.14 L 98.52 287.75 L 107.82 286.75 L 117.47 285.13 L 107.04 288.38 L 97.83 290.87 L 89.72 292.68 L 82.61 293.91 L 75.28 294.74 L 67.91 295.10 L 60.49 295.00 L 53.01 294.43 L 48.37 294.28 L 45.53 294.61 L 43.92 295.22 L 43.10 295.99 L 42.82 296.94 L 43.08 298.21 L 44.13 300.03 L 45.25 301.31 L 46.96 302.79 L 49.43 304.50 L 53.51 306.73 L 58.97 309.00 L 62.85 310.25 L 67.23 311.35 L 72.17 312.28 L 77.14 312.88 L 82.55 313.17 L 88.44 313.11 L 94.29 312.65 L 100.53 311.71 L 107.18 310.25 L 121.48 306.27 L 132.74 302.60 L 141.43 299.23 L 147.97 296.14 L 152.74 293.33 L 105.28 319.96 L 100.98 322.34 L 97.86 324.55 L 95.69 326.58 L 94.28 328.47 L 93.47 330.25 L 93.16 331.97 L 93.32 333.70 L 93.89 334.86 L 94.97 335.75 L 96.73 336.36 L 98.67 336.61 L 101.12 336.63 L 104.20 336.36 L 108.88 335.57 L 114.37 334.28 L 119.98 332.67 L 125.89 330.73 L 131.77 328.57 L 137.42 326.29 L 146.56 322.20 L 155.50 317.74 L 164.26 312.89 L 172.83 307.67 L 166.59 313.95 L 161.00 319.18 L 156.02 323.48 L 150.84 327.52 L 145.43 331.32 L 139.78 334.86 L 136.81 336.67 L 134.94 338.37 L 133.87 339.97 L 133.43 341.54 L 133.54 343.14 L 134.25 344.88 L 135.71 346.84 L 136.71 347.53 L 138.32 347.90 L 140.84 347.80 L 144.63 346.99 L 150.13 345.15 L 157.85 341.90 L 168.35 336.77 L 182.28 329.28 L 200.35 318.85 L 179.83 348.68 L 178.45 351.06 L 177.84 352.95 L 177.80 354.48 L 178.22 355.76 L 179.12 356.89 L 180.63 357.90 L 182.95 358.77 L 184.46 358.88 L 186.47 358.42 L 189.20 357.11 L 192.88 354.63 L 197.77 350.55 L 204.16 344.38 L 212.36 335.56 L 222.75 323.48 L 211.36 352.26 L 210.52 355.68 L 210.40 358.02 L 210.78 359.59 L 211.52 360.64 L 212.65 361.30 L 214.32 361.56 L 216.77 361.30 L 218.66 360.63 L 221.10 359.15 L 224.28 356.55 L 228.36 352.46 L 233.54 346.44 L 240.03 338.01 L 248.09 326.63 L 242.70 356.36 L 242.69 358.56 L 243.14 360.01 L 243.95 360.95 L 245.17 361.50 L 246.98 361.60 L 249.65 361.08 L 251.58 360.19 L 254.22 358.17 L 257.80 354.54 L 262.59 348.68 L 268.87 339.88 L 276.98 327.33 L 270.28 352.92 L 269.72 357.29 L 269.80 360.06 L 270.28 361.73 L 271.01 362.66 L 272.00 363.09 L 273.38 363.03 L 275.39 362.26 L 278.30 360.41 L 281.55 357.70 L 284.70 354.41 L 287.75 350.46 L 290.70 345.78 L 293.53 340.28 L 296.23 333.88 L 298.45 361.08 L 298.69 362.53 L 299.30 363.70 L 300.31 364.66 L 301.82 365.42 L 303.99 365.94 L 307.04 366.14 L 308.51 365.88 L 310.14 365.00 L 312.02 363.29 L 314.22 360.46 L 316.79 356.14 L 319.78 349.88 L 323.24 341.20 L 327.24 329.56 L 329.82 348.68 L 330.41 350.17 L 331.40 351.31 L 332.87 352.15 L 334.95 352.66 L 337.87 352.76 L 341.88 352.26 L 343.52 351.69 L 345.04 350.56 L 346.47 348.73 L 347.80 346.00 L 348.99 342.09 L 349.95 336.69 L 350.59 329.43 L 350.79 319.91 L 350.40 307.67 L 360.33 337.64 L 361.07 338.94 L 362.06 339.81 L 363.33 340.32 L 364.99 340.44 L 367.17 340.07 L 370.06 339.04 L 371.23 338.22 L 372.35 336.64 L 373.42 333.99 L 374.36 329.84 L 375.06 323.67 L 375.39 314.91 L 375.19 302.89 L 374.26 286.86 L 382.90 318.85 L 383.81 320.48 L 384.95 321.60 L 386.35 322.32 L 388.07 322.63 L 390.22 322.48 L 392.95 321.74 L 394.28 321.01 L 395.49 319.77 L 396.59 317.85 L 397.55 315.07 L 398.29 311.15 L 398.73 305.80 L 398.74 298.67 L 398.20 289.41 L 420.39 307.12 L 422.99 308.11 L 425.45 308.41 L 427.84 308.09 L 430.24 307.12 L 431.88 305.94 L 432.92 304.57 L 433.46 302.96 L 433.50 301.00 L 432.93 298.58 L 426.12 283.89 L 448.18 294.43 L 451.25 295.41 L 453.73 295.73 L 455.75 295.55 L 457.41 294.94 L 458.80 293.91 L 459.92 292.51 L 460.55 291.00 L 460.73 289.32 L 460.43 287.39 L 459.55 285.13 L 448.81 266.65" fill="none" group-id="1,10,17" id="路径-356备份" node-id="85" stroke="url(#linearGradient-21)" stroke-linecap="round" stroke-width="2" target-height="137.22246" target-width="453.37656" target-x="7.351532" target-y="228.92159"></path></g></svg>