<?xml version="1.0" standalone="no"?><!DOCTYPE svg PUBLIC "-//W3C//DTD SVG 1.1//EN" "http://www.w3.org/Graphics/SVG/1.1/DTD/svg11.dtd"><svg height="165" node-id="1" sillyvg="true" template-height="165" template-width="303" version="1.1" viewBox="0 0 303 165" width="303" xmlns="http://www.w3.org/2000/svg" xmlns:xlink="http://www.w3.org/1999/xlink"><defs node-id="65"><linearGradient gradientTransform="matrix(-0.15 -0.99 0.99 -0.15 3108.95 4047.83)" gradientUnits="userSpaceOnUse" id="未命名的渐变_3" node-id="5" spreadMethod="pad" x1="4337.01" x2="4337.08" y1="-2466.24" y2="-2440.09"><stop offset="0" stop-color="#f0a035"></stop><stop offset="1" stop-color="#ee7d3a"></stop></linearGradient><linearGradient gradientTransform="matrix(-0.15 -0.99 0.99 -0.15 3108.95 4047.83)" gradientUnits="userSpaceOnUse" id="未命名的渐变_3-2" node-id="8" spreadMethod="pad" x1="4370.37" x2="4370.45" y1="-2454.36" y2="-2428.21"><stop offset="0" stop-color="#f0a035"></stop><stop offset="1" stop-color="#ee7d3a"></stop></linearGradient><linearGradient gradientTransform="matrix(-0.15 -0.99 0.99 -0.15 3108.95 4047.83)" gradientUnits="userSpaceOnUse" id="未命名的渐变_3-3" node-id="9" spreadMethod="pad" x1="4403.79" x2="4403.87" y1="-2466.24" y2="-2440.09"><stop offset="0" stop-color="#f0a035"></stop><stop offset="1" stop-color="#ee7d3a"></stop></linearGradient><linearGradient gradientTransform="matrix(-0.15 -0.99 0.99 -0.15 3108.95 4047.83)" gradientUnits="userSpaceOnUse" id="未命名的渐变_6" node-id="10" spreadMethod="pad" x1="4336.15" x2="4338.07" y1="-2256.11" y2="-2416.29"><stop offset="0" stop-color="#e9eff8"></stop><stop offset="1" stop-color="#c0c8da"></stop></linearGradient><linearGradient gradientTransform="matrix(0 -1 1 0 2479.21 4466.32)" gradientUnits="userSpaceOnUse" id="未命名的渐变_14" node-id="13" spreadMethod="pad" x1="4330.1094" x2="4364.2695" y1="-2426.3699" y2="-2426.3699"><stop offset="0" stop-color="#ffffff"></stop><stop offset="1" stop-color="#d1d5dd"></stop></linearGradient><linearGradient gradientTransform="matrix(-0.15 -0.99 0.99 -0.15 3108.95 4047.83)" gradientUnits="userSpaceOnUse" id="未命名的渐变_6-2" node-id="16" spreadMethod="pad" x1="4404.11" x2="4404.11" y1="-2280.34" y2="-2418.21"><stop offset="0" stop-color="#e9eff8"></stop><stop offset="1" stop-color="#c0c8da"></stop></linearGradient><linearGradient gradientTransform="matrix(0 -1 1 0 2468.99 4467.16)" gradientUnits="userSpaceOnUse" id="未命名的渐变_14-2" node-id="17" spreadMethod="pad" x1="4403.4233" x2="4437.4175" y1="-2429.963" y2="-2429.963"><stop offset="0" stop-color="#ffffff"></stop><stop offset="1" stop-color="#d1d5dd"></stop></linearGradient><linearGradient gradientTransform="matrix(-0.15 -0.99 0.99 -0.15 3108.95 4047.83)" gradientUnits="userSpaceOnUse" id="未命名的渐变_11" node-id="18" spreadMethod="pad" x1="4291.27" x2="4361.02" y1="-2347" y2="-2347"><stop offset="0" stop-color="#ffffff"></stop><stop offset="1" stop-color="#d3d7e0"></stop></linearGradient><linearGradient gradientTransform="matrix(-0.15 -0.99 0.99 -0.15 3108.95 4047.83)" gradientUnits="userSpaceOnUse" id="未命名的渐变_11-2" node-id="21" spreadMethod="pad" x1="4325.42" x2="4322.74" y1="-2296.59" y2="-2391.22"><stop offset="0" stop-color="#ffffff"></stop><stop offset="1" stop-color="#d3d7e0"></stop></linearGradient><linearGradient gradientTransform="matrix(0.15 0.99 0.99 -0.15 1824.03 -4336.55)" gradientUnits="userSpaceOnUse" id="未命名的渐变_11-3" node-id="22" spreadMethod="pad" x1="4017.71" x2="4087.4" y1="-2332.55" y2="-2332.55"><stop offset="0" stop-color="#ffffff"></stop><stop offset="1" stop-color="#d3d7e0"></stop></linearGradient><linearGradient gradientTransform="matrix(0.15 0.99 0.99 -0.15 1824.03 -4336.55)" gradientUnits="userSpaceOnUse" id="未命名的渐变_11-4" node-id="23" spreadMethod="pad" x1="4056.06" x2="4053.37" y1="-2288.03" y2="-2382.67"><stop offset="0" stop-color="#ffffff"></stop><stop offset="1" stop-color="#d3d7e0"></stop></linearGradient><linearGradient gradientTransform="matrix(-0.15 -0.99 0.99 -0.15 3108.95 4047.83)" gradientUnits="userSpaceOnUse" id="未命名的渐变_14-3" node-id="24" spreadMethod="pad" x1="4358.06" x2="4391.74" y1="-2323.22" y2="-2323.22"><stop offset="0" stop-color="#ffffff"></stop><stop offset="1" stop-color="#d1d5dd"></stop></linearGradient><linearGradient gradientTransform="matrix(-0.15143334 -0.98846747 0.98846747 -0.15143334 3109.53 4048.75)" gradientUnits="userSpaceOnUse" id="未命名的渐变_14-4" node-id="25" spreadMethod="pad" x1="4362.63" x2="4379.25" y1="-2402.72" y2="-2402.72"><stop offset="0" stop-color="#ffffff"></stop><stop offset="1" stop-color="#d1d5dd"></stop></linearGradient><linearGradient gradientTransform="matrix(-0.15143334 -0.98846747 0.98846747 -0.15143334 3109.54 4048.75)" gradientUnits="userSpaceOnUse" id="未命名的渐变_14-5" node-id="26" spreadMethod="pad" x1="4383.68" x2="4400.31" y1="-2402.73" y2="-2402.73"><stop offset="0" stop-color="#ffffff"></stop><stop offset="1" stop-color="#d1d5dd"></stop></linearGradient></defs><g node-id="242"><g node-id="243"><g node-id="244"><path d="M 10.51 125.66 C 10.38 125.63 10.27 125.54 10.20 125.43 C 10.13 125.31 10.11 125.17 10.14 125.04 C 10.17 124.91 10.25 124.79 10.36 124.72 L 34.66 111.72 C 35.43 111.31 42.25 110.02 42.39 110.95 L 45.17 129.08 C 45.31 130.00 38.39 130.64 37.55 130.49 Z" fill="url(#未命名的渐变_3)" fill-rule="nonzero" group-id="1,2,3" node-id="156" stroke="none" target-height="20.620003" target-width="35.203304" target-x="10.106698" target-y="110.02"></path><path d="M 17.20 90.86 C 17.07 90.83 16.95 90.75 16.88 90.64 C 16.81 90.52 16.79 90.38 16.82 90.25 C 16.85 90.11 16.93 89.99 17.05 89.92 L 41.35 76.92 C 42.11 76.51 48.94 75.22 49.08 76.15 L 51.86 94.28 C 52.00 95.20 45.08 95.84 44.24 95.69 Z" fill="url(#未命名的渐变_3-2)" fill-rule="nonzero" group-id="1,2,3" node-id="158" stroke="none" target-height="20.619995" target-width="35.21283" target-x="16.78717" target-y="75.22"></path><path d="M 0.40 59.56 C 0.26 59.53 0.15 59.45 0.07 59.33 C -0.00 59.22 -0.03 59.08 -0.00 58.94 C 0.03 58.81 0.12 58.69 0.24 58.62 L 24.54 45.62 C 25.30 45.22 32.12 43.92 32.27 44.85 L 35.05 63.00 C 35.19 63.92 28.28 64.56 27.43 64.41 Z" fill="url(#未命名的渐变_3-3)" fill-rule="nonzero" group-id="1,2,3" node-id="160" stroke="none" target-height="20.64" target-width="35.219654" target-x="-0.02965417" target-y="43.92"></path><path d="M 46.62 75.00 L 49.87 96.00 C 49.91 96.69 50.26 97.33 50.84 97.72 C 51.41 98.11 52.13 98.22 52.79 98.00 L 60.90 94.54 C 60.98 94.50 61.03 94.40 61.01 94.31 L 57.80 73.31 C 57.79 73.21 57.72 73.13 57.62 73.12 L 48.86 72.26 C 48.17 72.24 47.51 72.55 47.07 73.08 C 46.63 73.62 46.47 74.33 46.62 75.00 Z" fill="#354762" fill-rule="nonzero" group-id="1,2,3" node-id="162" stroke="none" target-height="25.973106" target-width="14.564087" target-x="46.465305" target-y="72.242485"></path><path d="M 299.35 41.65 C 288.78 37.31 278.63 35.80 268.43 33.85 C 263.32 32.85 258.21 31.85 253.15 31.19 C 248.18 30.55 243.16 30.28 238.15 30.38 C 228.32 30.65 218.52 31.45 208.78 32.79 C 203.95 33.44 199.09 34.25 194.31 35.28 C 189.53 36.31 118.43 47.66 113.73 49.34 C 97.51 55.13 89.21 70.79 95.20 84.34 C 99.49 94.00 110.00 99.94 121.56 100.41 C 126.56 100.60 197.75 90.13 202.65 89.69 C 207.55 89.25 212.39 88.57 217.23 87.76 C 226.93 86.13 236.54 83.96 246.00 81.28 C 250.79 79.87 255.47 78.10 260.00 76.00 C 264.62 73.86 269.19 71.34 273.78 68.90 C 283.00 64.00 292.20 59.51 301.00 52.19 C 304.13 49.59 304.31 45.43 301.41 42.89 C 300.79 42.37 300.10 41.95 299.35 41.65 Z" fill="#ed783a" fill-rule="nonzero" group-id="1,2,3" node-id="164" stroke="none" target-height="70.32036" target-width="215.1" target-x="89.21" target-y="30.279638"></path><path d="M 54.76 132.25 L 50.65 105.43 C 55.23 104.28 176.13 85.57 178.19 85.07 C 180.25 84.57 182.53 84.21 184.72 83.92 C 189.12 83.33 193.56 83.03 198.00 83.00 C 200.28 83.01 202.56 83.20 204.81 83.59 C 207.11 84.00 209.43 84.59 211.76 85.13 C 216.40 86.26 221.02 87.13 225.86 89.52 C 226.20 89.70 226.51 89.92 226.78 90.19 C 227.41 90.82 227.77 91.68 227.77 92.57 C 227.77 93.46 227.41 94.32 226.78 94.95 L 226.70 95.03 C 222.79 98.75 218.70 101.03 214.56 103.44 C 212.56 104.65 210.47 105.92 208.39 106.99 C 206.37 108.04 204.26 108.91 202.08 109.59 C 197.82 110.89 193.47 111.92 189.08 112.67 C 186.90 113.04 184.71 113.34 182.50 113.52 C 180.29 113.70 59.48 132.00 54.76 132.25 Z" fill="url(#未命名的渐变_6)" fill-rule="nonzero" group-id="1,2,3" node-id="166" stroke="none" target-height="49.25" target-width="177.11826" target-x="50.65" target-y="83"></path><g node-id="245"><path d="M 49.18 102.42 L 51.33 102.09 L 51.63 102.16 L 51.79 102.42 L 56.84 135.39 L 56.77 135.68 L 56.50 135.84 L 54.35 136.17 L 54.05 136.10 L 53.89 135.84 L 48.84 102.87 L 48.92 102.58 L 49.18 102.42 Z" fill="url(#未命名的渐变_14)" fill-rule="nonzero" group-id="1,2,3,4" node-id="170" stroke="none" target-height="34.086273" target-width="7.9959335" target-x="48.842148" target-y="102.0863"></path></g><path d="M 43.68 66.05 L 39.57 39.24 C 44.16 38.08 165.97 19.24 168.03 18.74 C 170.09 18.24 172.37 17.88 174.56 17.58 C 178.96 16.98 183.40 16.67 187.84 16.63 C 190.12 16.63 192.40 16.83 194.65 17.22 C 196.94 17.63 199.27 18.22 201.59 18.76 C 206.24 19.88 210.85 20.76 215.71 23.16 C 216.69 23.64 217.38 24.57 217.56 25.64 C 217.74 26.72 217.38 27.82 216.60 28.59 L 216.52 28.66 C 212.62 32.38 208.52 34.61 204.39 37.07 C 202.33 38.29 200.29 39.56 198.22 40.63 C 196.19 41.67 194.08 42.54 191.90 43.22 C 187.64 44.52 183.29 45.55 178.90 46.30 C 176.72 46.67 174.52 46.97 172.31 47.15 C 170.10 47.33 48.40 65.78 43.68 66.05 Z" fill="url(#未命名的渐变_6-2)" fill-rule="nonzero" group-id="1,2,3" node-id="173" stroke="none" target-height="49.420006" target-width="178.16699" target-x="39.57" target-y="16.63"></path><path d="M 38.53 35.97 L 40.69 35.65 L 40.99 35.72 L 41.15 35.98 L 46.12 68.80 L 46.05 69.10 L 45.78 69.26 L 43.63 69.58 L 43.33 69.51 L 43.17 69.25 L 38.20 36.43 L 38.27 36.13 L 38.53 35.97 Z" fill="url(#未命名的渐变_14-2)" fill-rule="nonzero" group-id="1,2,3,5" node-id="177" stroke="none" target-height="33.937496" target-width="7.922699" target-x="38.198204" target-y="35.646"></path><path d="M 212.33 76.06 C 212.33 76.06 199.56 89.57 172.62 93.46 C 145.68 97.35 131.26 109.39 124.93 116.58 C 118.12 124.28 110.47 150.58 104.51 154.69 C 96.88 160.06 88.18 163.72 79.00 165.43 C 77.79 165.61 76.14 163.09 75.69 162.43 C 72.36 157.48 61.09 131.90 51.77 99.04 Z" fill="url(#未命名的渐变_11)" fill-rule="nonzero" group-id="1,2,3" node-id="180" stroke="none" target-height="89.55" target-width="160.56" target-x="51.77" target-y="76.06"></path><path d="M 220.63 74.80 C 220.63 74.80 207.86 88.30 180.93 92.19 C 154.00 96.08 139.57 108.12 133.23 115.30 C 126.43 123.01 118.51 146.93 112.55 151.03 C 104.61 156.44 95.89 160.61 86.69 163.40 C 85.47 163.77 84.40 161.83 83.95 161.16 C 80.62 156.21 69.35 130.63 60.02 97.77 Z" fill="url(#未命名的渐变_11-2)" fill-rule="nonzero" group-id="1,2,3" node-id="182" stroke="none" target-height="88.97" target-width="160.61" target-x="60.02" target-y="74.8"></path><path d="M 135.98 84.80 L 126.57 126.29 L 125.58 128.26 L 135.00 86.51 L 135.98 84.80 Z" fill="#b2b8c3" fill-rule="nonzero" group-id="1,2,3" node-id="184" stroke="none" target-height="43.45999" target-width="10.399994" target-x="125.58" target-y="84.8"></path><path d="M 207.83 45.83 C 207.83 45.83 191.61 36.77 164.73 41.12 C 137.85 45.47 120.50 38.31 112.31 33.36 C 103.51 28.04 88.31 5.21 81.42 3.09 C 67.77 -1.08 57.00 0.00 53.81 0.51 C 52.60 0.69 51.81 3.59 51.55 4.36 C 49.86 10.08 46.77 37.86 47.71 72.01 Z" fill="url(#未命名的渐变_11-3)" fill-rule="nonzero" group-id="1,2,3" node-id="186" stroke="none" target-height="73.090004" target-width="161.06" target-x="46.77" target-y="-1.08"></path><path d="M 216.12 44.57 C 216.12 44.57 199.90 35.50 173.00 39.85 C 146.10 44.20 128.80 37.00 120.61 32.09 C 111.81 26.77 97.09 6.31 90.18 4.20 C 80.98 1.42 71.41 0.05 61.80 0.14 C 60.54 0.14 60.08 2.33 59.85 3.14 C 58.16 8.82 55.07 36.60 56.00 70.74 Z" fill="url(#未命名的渐变_11-4)" fill-rule="nonzero" group-id="1,2,3" node-id="188" stroke="none" target-height="70.69009" target-width="161.04999" target-x="55.07" target-y="0.04991155"></path><path d="M 132.36 60.36 L 110.97 23.59 L 109.43 22.01 L 130.91 59.02 L 132.36 60.36 Z" fill="#b2b8c3" fill-rule="nonzero" group-id="1,2,3" node-id="190" stroke="none" target-height="38.35" target-width="22.93" target-x="109.43" target-y="22.01"></path><path d="M 52.55 100.75 L 47.79 69.67 C 54.32 68.15 183.87 48.05 186.79 47.43 C 189.71 46.81 192.97 46.25 196.08 45.80 C 202.32 44.95 208.60 44.41 214.89 44.21 C 218.09 44.11 221.30 44.25 224.48 44.61 C 227.73 44.98 230.97 45.61 234.25 46.14 C 240.78 47.26 247.25 48.14 254.02 50.70 C 254.48 50.88 254.91 51.13 255.30 51.44 C 257.15 52.96 257.01 55.49 254.99 57.08 C 249.32 61.56 243.39 64.32 237.50 67.36 C 234.55 68.86 231.61 70.36 228.64 71.73 C 225.72 73.04 222.71 74.14 219.64 75.02 C 213.57 76.70 207.42 78.07 201.21 79.12 C 198.11 79.63 194.99 80.07 191.88 80.37 C 188.77 80.67 59.23 100.25 52.55 100.75 Z" fill="url(#未命名的渐变_14-3)" fill-rule="nonzero" group-id="1,2,3" node-id="192" stroke="none" target-height="56.636868" target-width="209.35999" target-x="47.79" target-y="44.113132"></path><path d="M 60.18 102.39 L 57.66 86.00 L 57.66 86.00 L 82.84 82.14 C 84.05 81.95 85.19 82.79 85.38 84.00 L 85.38 84.00 L 87.23 96.00 C 87.41 97.22 86.57 98.35 85.36 98.54 L 85.36 98.54 L 60.18 102.40 Z" fill="url(#未命名的渐变_14-4)" fill-rule="nonzero" group-id="1,2,3" node-id="194" stroke="none" target-height="20.445534" target-width="29.749432" target-x="57.66" target-y="81.95447"></path><path d="M 57.00 81.58 L 54.47 65.14 L 54.47 65.14 L 79.65 61.29 C 80.23 61.20 80.83 61.34 81.31 61.69 C 81.79 62.04 82.10 62.56 82.19 63.15 L 82.19 63.15 L 84.04 75.15 C 84.22 76.37 83.38 77.50 82.17 77.69 L 82.17 77.69 L 57.00 81.58 Z" fill="url(#未命名的渐变_14-5)" fill-rule="nonzero" group-id="1,2,3" node-id="196" stroke="none" target-height="20.384659" target-width="29.749428" target-x="54.47" target-y="61.195343"></path><path d="M 47.55 67.54 L 49.66 81.36 C 49.68 81.81 49.91 82.22 50.28 82.47 C 50.65 82.73 51.11 82.80 51.54 82.66 L 56.72 80.41 C 56.77 80.38 56.80 80.32 56.79 80.26 L 54.67 66.48 C 54.67 66.42 54.62 66.36 54.56 66.35 L 49.00 65.76 C 48.07 65.64 47.39 66.51 47.55 67.54 Z" fill="#4d6286" fill-rule="nonzero" group-id="1,2,3" node-id="198" stroke="none" target-height="17.157402" target-width="9.408863" target-x="47.39" target-y="65.64"></path><path d="M 50.84 89.00 L 53.00 102.86 C 53.02 103.31 53.25 103.72 53.62 103.97 C 53.99 104.23 54.45 104.30 54.88 104.16 L 60.00 101.92 C 60.06 101.89 60.09 101.82 60.08 101.76 L 58.00 88.00 C 57.99 87.94 57.94 87.89 57.88 87.88 L 52.27 87.29 C 51.84 87.29 51.43 87.47 51.15 87.81 C 50.87 88.14 50.76 88.58 50.84 89.00 Z" fill="#4d6286" fill-rule="nonzero" group-id="1,2,3" node-id="200" stroke="none" target-height="17.01207" target-width="9.329437" target-x="50.758987" target-y="87.28533"></path><path d="M 172.80 50.68 L 173.69 50.55 L 178.32 81.06 L 177.43 81.20 Z" fill="#b2b8c3" fill-rule="nonzero" group-id="1,2,3,6" node-id="204" stroke="none" target-height="30.646297" target-width="5.5151215" target-x="172.80496" target-y="50.54955"></path><path d="M 132.92 57.24 L 133.81 57.11 L 138.43 87.62 L 137.54 87.76 Z" fill="#b2b8c3" fill-rule="nonzero" group-id="1,2,3,7" node-id="209" stroke="none" target-height="30.646805" target-width="5.5140076" target-x="132.9168" target-y="57.109802"></path><path d="M 93.15 63.05 L 94.04 62.91 L 98.71 93.38 L 97.82 93.51 Z" fill="#b2b8c3" fill-rule="nonzero" group-id="1,2,3,8" node-id="214" stroke="none" target-height="30.60086" target-width="5.556793" target-x="93.14889" target-y="62.910614"></path><path d="M 29.47 43.83 L 32.66 64.69 C 32.90 66.23 34.15 67.20 35.24 66.69 L 42.24 63.43 C 42.32 63.38 42.36 63.29 42.34 63.20 L 39.12 42.36 C 39.11 42.27 39.05 42.19 38.96 42.17 L 31.33 41.17 C 30.14 41.00 29.23 42.29 29.47 43.83 Z" fill="#354664" fill-rule="nonzero" group-id="1,2,3" node-id="217" stroke="none" target-height="26.199997" target-width="13.131134" target-x="29.23" target-y="41"></path><path d="M 39.59 109.93 L 42.79 130.79 C 43.02 132.33 44.28 133.30 45.37 132.79 L 52.37 129.52 C 52.45 129.48 52.49 129.39 52.47 129.30 L 49.28 108.45 C 49.26 108.36 49.20 108.29 49.11 108.26 L 41.49 107.26 C 40.26 107.09 39.36 108.39 39.59 109.93 Z" fill="#354664" fill-rule="nonzero" group-id="1,2,3" node-id="219" stroke="none" target-height="26.210007" target-width="13.1297455" target-x="39.36" target-y="107.09"></path><path d="M 234.93 46.19 C 232.94 53.33 234.11 60.97 238.13 67.19 C 243.81 64.29 249.52 61.55 254.97 57.19 C 257.04 55.57 257.17 52.98 255.29 51.43 C 254.89 51.12 254.44 50.86 253.97 50.68 C 247.48 48.17 241.21 47.25 234.93 46.19 Z" fill="#354664" fill-rule="nonzero" group-id="1,2,3" node-id="221" stroke="none" target-height="21.000004" target-width="24.226364" target-x="232.94365" target-y="46.19"></path><path d="M 213.42 67.92 L 210.64 68.34 L 208.34 73.35 L 216.41 72.12 L 213.42 67.92 Z" fill="#354664" fill-rule="nonzero" group-id="1,2,3" node-id="223" stroke="none" target-height="5.4300003" target-width="8.070007" target-x="208.34" target-y="67.92"></path><path d="M 215.73 64.23 L 214.46 66.81 L 217.35 70.88 L 220.61 63.94 L 215.73 64.23 Z" fill="#354664" fill-rule="nonzero" group-id="1,2,3" node-id="225" stroke="none" target-height="6.9399986" target-width="6.149994" target-x="214.46" target-y="63.94"></path><path d="M 211.05 53.17 L 208.28 53.60 L 204.59 49.51 L 212.65 48.27 L 211.05 53.17 Z" fill="#354664" fill-rule="nonzero" group-id="1,2,3" node-id="227" stroke="none" target-height="5.329998" target-width="8.059998" target-x="204.59" target-y="48.27"></path><path d="M 214.36 56.00 L 212.38 53.92 L 213.92 49.18 L 219.10 54.82 L 214.36 56.00 Z" fill="#354664" fill-rule="nonzero" group-id="1,2,3" node-id="229" stroke="none" target-height="6.8199997" target-width="6.720001" target-x="212.38" target-y="49.18"></path><path d="M 223.00 58.77 L 220.92 62.53 L 216.00 63.28 L 216.91 60.08 L 215.08 57.29 L 219.74 56.41 L 223.00 58.77 Z" fill="#354664" fill-rule="nonzero" group-id="1,2,3" node-id="231" stroke="none" target-height="6.869999" target-width="7.919998" target-x="215.08" target-y="56.41"></path><path d="M 204.65 62.69 L 209.09 62.01 L 209.72 66.10 L 205.28 66.78 Z" fill="#354664" fill-rule="nonzero" group-id="1,2,3,9" node-id="235" stroke="none" target-height="4.7721863" target-width="5.0651245" target-x="204.65385" target-y="62.006607"></path><path d="M 203.70 56.47 L 208.14 55.79 L 208.77 59.88 L 204.33 60.56 Z" fill="#354664" fill-rule="nonzero" group-id="1,2,3,10" node-id="240" stroke="none" target-height="4.7721863" target-width="5.06514" target-x="203.7044" target-y="55.79209"></path></g></g></g></svg>