<?xml version="1.0" standalone="no"?><!DOCTYPE svg PUBLIC "-//W3C//DTD SVG 1.1//EN" "http://www.w3.org/Graphics/SVG/1.1/DTD/svg11.dtd"><svg height="500" node-id="1" sillyvg="true" template-height="500" template-width="500" version="1.1" viewBox="0 0 500 500" width="500" xmlns="http://www.w3.org/2000/svg" xmlns:xlink="http://www.w3.org/1999/xlink"><defs node-id="57"></defs><g node-id="150"><g node-id="151"><g node-id="155"><path d="M 165.10 158.10 L 163.30 167.80 L 122.40 137.60 L 121.50 124.10 Z" fill="#d8a200" fill-rule="nonzero" group-id="1,2,6" node-id="66" stroke="none" target-height="43.700005" target-width="43.600006" target-x="121.5" target-y="124.1"></path><path d="M 178.40 149.60 L 165.10 158.00 L 165.10 158.10 L 121.50 124.10 L 137.10 114.20 Z" fill="#fbde2e" fill-rule="nonzero" group-id="1,2,6" node-id="68" stroke="none" target-height="43.90001" target-width="56.899994" target-x="121.5" target-y="114.2"></path><path d="M 348.00 300.80 C 347.60 301.10 347.10 301.30 346.60 301.40 C 345.60 301.60 344.50 301.40 343.60 300.80 L 163.30 167.80 L 165.10 158.20 L 348.00 300.80 Z" fill="#bc0004" fill-rule="nonzero" group-id="1,2,6" node-id="70" stroke="none" target-height="143.40001" target-width="184.7" target-x="163.3" target-y="158.2"></path><path d="M 348.80 299.90 C 348.60 300.20 348.30 300.50 348.00 300.80 L 165.10 158.10 L 165.10 158.00 L 178.40 149.60 L 348.20 295.10 C 349.60 296.40 349.80 298.40 348.80 299.90 Z" fill="#f61f1e" fill-rule="nonzero" group-id="1,2,6" node-id="72" stroke="none" target-height="151.19998" target-width="184.69998" target-x="165.1" target-y="149.6"></path></g><path d="M 138.00 115.40 L 347.30 294.80 C 348.70 296.00 349.00 298.00 348.00 299.60 L 348.00 299.60 C 346.90 301.30 344.50 301.70 342.80 300.50 L 123.60 138.80 C 122.30 137.80 121.50 136.30 121.30 134.70 L 120.70 126.70 C 120.60 124.90 121.40 123.20 123.00 122.20 L 134.10 115.10 C 135.40 114.40 136.90 114.50 138.00 115.40 Z" fill="none" group-id="1,2" node-id="75" stroke="#000000" stroke-linecap="round" stroke-width="3.8942" target-height="187.30002" target-width="228.4" target-x="120.6" target-y="114.4"></path><path d="M 162.40 167.40 L 163.90 159.30 C 164.10 158.30 164.70 157.40 165.60 156.80 L 177.50 149.30" fill="none" group-id="1,2" node-id="77" stroke="#000000" stroke-linecap="round" stroke-width="2.6187" target-height="18.09999" target-width="15.100006" target-x="162.4" target-y="149.3"></path></g><g node-id="152"><path d="M 386.40 263.00 C 391.80 286.50 381.60 295.10 381.60 295.10 C 381.60 295.10 373.30 300.80 348.10 295.10 C 328.80 290.80 320.20 317.10 314.30 342.30 C 308.40 367.50 285.20 397.50 245.10 402.00 C 214.60 405.40 193.30 392.80 184.00 385.70 C 180.50 383.00 177.70 379.50 176.10 375.40 C 173.10 368.10 168.60 354.60 168.30 338.90 C 167.90 315.30 255.00 253.00 314.60 255.90 C 374.20 258.80 386.40 263.00 386.40 263.00 Z" fill="#f6d5b7" fill-rule="nonzero" group-id="1,3" node-id="82" stroke="#000000" stroke-linecap="butt" stroke-width="3.8942" target-height="152.4" target-width="223.9" target-x="167.9" target-y="253"></path><path d="M 273.60 239.80 C 273.60 239.80 300.90 207.80 338.20 222.10 C 375.50 236.40 403.50 273.40 377.90 282.80 C 351.10 292.60 327.20 262.00 303.90 332.50 C 279.50 406.20 165.80 405.50 168.20 332.90 C 170.60 258.60 245.90 267.20 273.60 239.80 Z" fill="#ffc1a9" fill-rule="nonzero" group-id="1,3" node-id="84" stroke="#000000" stroke-linecap="butt" stroke-width="3.8942" target-height="198.40001" target-width="237.7" target-x="165.8" target-y="207.8"></path><g node-id="156"><path d="M 226.20 377.40 C 211.00 377.40 197.50 372.40 189.00 363.60 C 181.60 355.90 178.00 345.70 178.40 333.20 C 179.00 313.70 185.10 299.70 197.40 289.30 C 201.10 286.10 205.40 283.30 210.70 280.50 C 217.10 277.10 225.10 279.80 228.30 286.30 C 235.00 299.70 235.60 311.00 235.30 319.80 C 235.10 324.50 234.60 328.90 234.10 333.20 C 232.60 346.30 231.20 357.60 242.90 366.10 C 244.00 366.90 245.20 367.70 246.40 368.40 C 249.10 370.00 248.50 374.00 245.50 374.90 C 239.10 376.50 232.60 377.40 226.20 377.40 Z" fill="#ff5e5a" fill-rule="nonzero" group-id="1,3,7" node-id="88" stroke="none" target-height="100.29999" target-width="71.100006" target-x="178" target-y="277.1"></path><path d="M 270.20 362.80 C 263.50 367.80 254.40 368.10 247.50 363.50 C 246.90 363.10 246.20 362.70 245.60 362.20 C 236.20 355.40 237.20 346.20 238.70 333.60 C 239.00 330.80 239.40 328.00 239.60 325.00 C 239.70 323.30 241.20 321.90 242.90 321.90 L 242.90 321.90 C 263.40 321.90 274.40 334.20 280.00 344.80 C 281.90 348.30 281.30 352.60 278.60 355.40 C 276.10 358.10 273.20 360.60 270.20 362.80 Z" fill="#ff5e5a" fill-rule="nonzero" group-id="1,3,7" node-id="90" stroke="none" target-height="46.200012" target-width="45.699997" target-x="236.2" target-y="321.9"></path><path d="M 290.70 338.20 C 289.00 341.80 284.00 342.00 281.80 338.70 C 275.20 328.50 263.30 317.30 242.90 317.30 L 242.90 317.30 C 241.30 317.30 239.90 316.00 239.90 314.30 C 239.50 301.50 236.00 291.20 231.90 283.10 C 229.20 277.80 231.80 271.30 237.40 269.30 C 237.90 269.10 238.30 269.00 238.70 268.80 L 239.80 268.40 L 239.90 268.40 C 244.50 266.70 249.70 268.00 253.10 271.60 C 271.50 291.10 287.90 299.00 300.40 301.70 C 302.80 302.20 304.10 304.80 303.00 307.00 C 303.00 307.00 303.00 307.00 303.00 307.10 C 302.40 308.30 301.20 309.10 299.90 309.20 C 291.50 309.90 286.80 312.00 285.20 315.60 C 283.40 319.80 286.50 324.60 290.10 328.90 C 291.90 331.10 292.40 334.10 291.20 336.70 C 291.20 337.20 290.90 337.70 290.70 338.20 Z" fill="#ff5e5a" fill-rule="nonzero" group-id="1,3,7" node-id="92" stroke="none" target-height="75.29999" target-width="74.90001" target-x="229.2" target-y="266.7"></path><path d="M 296.30 323.60 C 295.70 325.20 293.60 325.60 292.50 324.20 C 290.50 321.60 288.90 319.00 289.60 317.40 C 289.90 316.70 291.20 315.20 296.20 314.30 C 297.90 314.00 299.20 315.70 298.60 317.30 C 297.90 319.30 297.10 321.40 296.30 323.60 Z" fill="#ff5e5a" fill-rule="nonzero" group-id="1,3,7" node-id="94" stroke="none" target-height="11.600006" target-width="10.300018" target-x="288.9" target-y="314"></path><path d="M 298.90 296.50 C 288.00 293.60 274.30 286.50 258.80 270.80 C 255.60 267.60 256.60 262.20 260.70 260.20 L 260.80 260.10 C 263.70 258.70 267.20 259.70 269.00 262.40 C 275.90 272.70 283.50 277.90 291.50 277.90 C 291.80 277.90 292.10 277.90 292.40 277.90 C 300.80 277.50 307.20 273.90 312.90 270.80 C 318.10 268.00 322.90 265.30 328.70 265.30 C 334.00 265.30 339.80 267.60 346.40 272.30 C 346.40 272.30 346.40 272.30 346.40 272.30 C 347.30 272.90 347.00 274.30 345.90 274.60 C 338.80 276.30 321.90 279.10 312.00 291.80 C 309.00 296.00 303.80 297.80 298.90 296.50 Z" fill="#ff5e5a" fill-rule="nonzero" group-id="1,3,7" node-id="96" stroke="none" target-height="39.099976" target-width="91.69998" target-x="255.6" target-y="258.7"></path><path d="M 364.10 274.90 C 364.00 274.90 363.90 274.90 363.70 274.90 C 359.30 274.90 355.00 273.30 351.60 270.50 C 350.70 269.80 349.80 269.10 349.10 268.60 C 341.60 263.30 335.00 260.70 328.70 260.70 C 321.80 260.70 316.20 263.80 310.70 266.80 C 305.20 269.80 299.60 272.90 292.20 273.30 C 292.00 273.30 291.70 273.30 291.50 273.30 C 284.90 273.30 279.20 268.30 274.70 262.30 C 272.00 258.80 272.80 253.80 276.20 251.00 C 277.80 249.70 279.40 248.40 280.80 247.00 L 281.10 246.70 L 281.40 246.40 C 281.40 246.40 283.30 244.20 286.80 241.40 C 290.50 238.30 295.30 236.90 300.10 237.50 C 305.30 238.10 310.20 238.50 314.80 238.50 C 321.90 238.50 328.10 237.70 333.50 236.20 C 338.50 234.80 343.90 235.40 348.40 238.00 C 355.70 242.20 362.40 247.40 367.80 253.00 C 374.00 259.40 377.90 266.20 377.90 270.20 C 377.90 271.00 377.90 272.10 374.60 273.30 C 371.50 274.40 368.30 274.90 364.10 274.90 Z" fill="#ff5e5a" fill-rule="nonzero" group-id="1,3,7" node-id="98" stroke="none" target-height="40.09999" target-width="105.899994" target-x="272" target-y="234.8"></path><path d="M 315.30 235.10 C 312.70 235.10 309.20 234.80 305.80 234.50 C 303.90 234.30 303.60 231.70 305.40 231.10 C 310.00 229.50 314.70 228.50 318.90 228.50 C 322.50 228.50 327.60 229.30 332.00 230.50 C 333.30 230.80 333.30 232.80 332.00 233.10 C 327.00 234.20 320.90 235.10 315.30 235.10 Z" fill="#ff5e5a" fill-rule="nonzero" group-id="1,3,7" node-id="100" stroke="none" target-height="6.600006" target-width="29.699982" target-x="303.6" target-y="228.5"></path></g></g><g node-id="153"><g node-id="157"><path d="M 186.20 132.80 L 182.30 141.80 L 149.30 103.20 L 151.40 89.90 Z" fill="#d8a200" fill-rule="nonzero" group-id="1,4,8" node-id="108" stroke="none" target-height="51.9" target-width="36.899994" target-x="149.3" target-y="89.9"></path><path d="M 201.10 127.50 L 186.20 132.70 L 186.20 132.80 L 151.40 89.90 L 168.80 83.70 Z" fill="#fbde2e" fill-rule="nonzero" group-id="1,4,8" node-id="110" stroke="none" target-height="49.100006" target-width="49.700012" target-x="151.4" target-y="83.7"></path><path d="M 332.20 313.00 C 331.70 313.20 331.20 313.30 330.70 313.30 C 329.70 313.30 328.70 312.90 327.90 312.00 L 182.30 141.80 L 186.20 132.80 L 332.20 313.00 Z" fill="#bc0004" fill-rule="nonzero" group-id="1,4,8" node-id="112" stroke="none" target-height="180.49998" target-width="149.90001" target-x="182.3" target-y="132.8"></path><path d="M 333.20 312.40 C 332.90 312.70 332.60 312.90 332.20 313.10 L 186.20 132.80 L 186.20 132.70 L 201.10 127.50 L 333.70 307.60 C 334.70 309.10 334.60 311.10 333.20 312.40 Z" fill="#f61f1e" fill-rule="nonzero" group-id="1,4,8" node-id="114" stroke="none" target-height="185.6" target-width="148.50002" target-x="186.2" target-y="127.5"></path></g><path d="M 169.40 85.10 L 332.90 307.10 C 334.00 308.60 333.80 310.60 332.50 311.90 L 332.50 311.90 C 331.00 313.30 328.60 313.20 327.30 311.60 L 150.20 104.70 C 149.10 103.50 148.70 101.80 148.90 100.20 L 150.20 92.30 C 150.50 90.50 151.70 89.10 153.40 88.50 L 165.90 84.10 C 167.10 83.50 168.60 83.90 169.40 85.10 Z" fill="none" group-id="1,4" node-id="117" stroke="#000000" stroke-linecap="round" stroke-width="3.8942" target-height="229.79999" target-width="185.3" target-x="148.7" target-y="83.5"></path><path d="M 181.50 141.30 L 184.80 133.70 C 185.20 132.70 186.00 132.00 187.00 131.60 L 200.30 127.00" fill="none" group-id="1,4" node-id="119" stroke="#000000" stroke-linecap="round" stroke-width="2.6187" target-height="14.300003" target-width="18.800003" target-x="181.5" target-y="127"></path></g><g node-id="154"><g node-id="158"><path d="M 292.80 209.00 C 293.40 234.80 241.70 208.10 240.60 207.50 C 245.30 212.90 249.50 219.20 252.00 226.20 C 259.20 246.50 239.30 251.50 234.20 252.50 C 234.70 265.10 222.50 269.60 216.70 271.00 C 214.70 282.30 195.00 283.50 176.00 274.20 C 133.70 253.50 130.70 198.20 177.40 174.50 C 210.70 157.50 255.00 169.10 277.80 186.60 C 276.90 186.60 271.20 186.50 266.40 190.00 C 261.40 193.70 259.20 198.00 258.30 201.20 C 257.60 203.60 259.00 206.10 261.30 206.80 L 272.50 210.20 C 274.50 210.80 276.70 209.80 277.50 207.90 C 278.90 204.60 282.00 199.90 289.10 198.20 C 291.40 201.90 292.80 205.50 292.80 209.00 Z" fill="#ffeae1" fill-rule="nonzero" group-id="1,5,9" node-id="126" stroke="none" target-height="126" target-width="162.7" target-x="130.7" target-y="157.5"></path><path d="M 289.10 198.30 C 282.00 200.00 278.90 204.70 277.50 208.00 C 276.70 209.90 274.50 210.90 272.50 210.30 L 261.30 206.90 C 258.90 206.20 257.60 203.70 258.30 201.30 C 259.20 198.10 261.40 193.80 266.40 190.10 C 271.20 186.60 276.90 186.70 277.80 186.70 C 282.60 190.30 286.50 194.30 289.10 198.30 Z" fill="#fff4ea" fill-rule="nonzero" group-id="1,5,9" node-id="128" stroke="none" target-height="24.299988" target-width="31.5" target-x="257.6" target-y="186.6"></path></g><g node-id="159"><g node-id="160"><path d="M 233.90 250.60 C 238.40 249.60 242.90 247.80 246.30 245.00 C 248.00 243.60 249.30 241.90 250.20 240.00 C 251.10 238.10 251.40 236.00 251.30 233.80 C 251.20 231.60 250.70 229.40 250.00 227.20 C 249.20 225.00 248.30 222.80 247.20 220.70 C 245.00 216.50 242.30 212.50 239.20 208.80 L 239.30 208.90 C 239.60 209.20 240.20 209.50 240.60 209.50 L 239.10 208.80 C 237.50 206.80 235.80 204.90 234.00 203.10 C 232.20 201.20 230.30 199.50 228.40 197.80 C 226.50 196.10 224.50 194.40 222.40 192.90 C 220.30 191.30 218.20 189.80 216.10 188.40 L 216.10 188.40 C 215.60 188.10 215.50 187.40 215.80 187.00 C 216.10 186.50 216.70 186.40 217.20 186.60 C 219.60 187.90 221.80 189.30 224.00 190.80 C 226.20 192.30 228.30 193.90 230.40 195.50 C 232.50 197.10 234.50 198.90 236.50 200.70 C 238.50 202.50 240.30 204.40 242.20 206.40 L 240.70 205.70 C 241.20 205.70 241.80 205.90 242.10 206.30 L 242.20 206.40 L 242.20 206.40 C 245.50 210.20 248.60 214.30 251.10 218.80 C 252.30 221.10 253.40 223.40 254.30 225.90 C 255.20 228.40 255.80 231.00 255.90 233.80 C 256.00 235.20 255.90 236.60 255.60 238.00 C 255.30 239.40 254.90 240.80 254.30 242.00 C 253.70 243.30 253.00 244.50 252.10 245.60 C 251.20 246.70 250.20 247.70 249.20 248.50 C 244.90 251.90 239.80 253.70 234.70 254.60 C 233.60 254.80 232.60 254.10 232.40 253.00 C 232.20 251.90 232.80 250.90 233.90 250.60 L 233.90 250.60 Z" fill="#000000" fill-rule="nonzero" group-id="1,5,10,11" node-id="135" stroke="none" target-height="68.40001" target-width="40.5" target-x="215.5" target-y="186.4"></path></g><g node-id="161"><path d="M 216.30 269.10 C 219.70 268.20 223.00 266.80 225.70 264.90 C 227.10 264.00 228.30 262.80 229.30 261.60 C 229.80 261.00 230.20 260.30 230.60 259.60 C 230.90 258.90 231.30 258.20 231.50 257.40 C 232.00 255.90 232.10 254.30 232.10 252.60 C 232.00 251.00 231.80 249.30 231.30 247.60 C 230.90 245.90 230.10 244.30 229.50 242.60 C 229.20 241.80 228.80 241.00 228.40 240.20 L 227.20 237.80 C 226.80 237.00 226.30 236.30 225.80 235.50 C 225.30 234.70 224.90 233.90 224.40 233.20 C 223.30 231.70 222.40 230.20 221.20 228.80 L 219.50 226.70 L 217.70 224.70 L 216.80 223.70 L 215.80 222.70 L 213.90 220.70 C 208.70 215.60 203.00 210.90 196.90 206.90 L 196.90 206.90 C 196.50 206.60 196.40 206.10 196.60 205.70 C 196.90 205.30 197.40 205.20 197.80 205.40 C 204.30 209.10 210.40 213.50 216.00 218.60 C 221.50 223.70 226.60 229.40 230.60 235.90 C 232.50 239.20 234.20 242.70 235.40 246.40 C 236.00 248.30 236.40 250.30 236.40 252.30 C 236.40 254.40 236.30 256.50 235.60 258.50 C 235.40 259.50 234.80 260.50 234.40 261.50 C 233.90 262.40 233.30 263.30 232.70 264.10 C 231.40 265.70 229.80 267.10 228.10 268.30 C 224.70 270.60 221.00 272.00 217.20 272.80 C 216.10 273.00 215.10 272.40 214.90 271.30 C 214.60 270.40 215.30 269.40 216.30 269.10 L 216.30 269.10 Z" fill="#000000" fill-rule="nonzero" group-id="1,5,10,12" node-id="140" stroke="none" target-height="67.8" target-width="40" target-x="196.4" target-y="205.2"></path></g><g node-id="162"><path d="M 178.50 225.70 C 186.70 229.50 194.30 234.60 201.10 240.70 C 202.00 241.40 202.80 242.20 203.60 243.00 C 204.40 243.80 205.20 244.60 206.00 245.50 L 208.30 248.00 L 210.40 250.70 C 211.10 251.60 211.70 252.60 212.40 253.50 C 213.10 254.40 213.70 255.40 214.30 256.40 L 216.00 259.40 C 216.50 260.50 217.10 261.50 217.50 262.70 C 218.30 264.90 218.90 267.40 218.80 270.00 C 218.70 272.60 217.60 275.30 215.70 277.20 C 213.90 279.10 211.50 280.30 209.20 281.10 C 206.90 281.90 204.50 282.20 202.10 282.40 C 197.40 282.60 192.70 282.00 188.20 280.90 C 183.70 279.80 179.40 278.20 175.20 276.20 C 171.10 274.20 167.10 271.80 163.40 269.00 C 159.70 266.20 156.40 262.90 153.40 259.30 C 150.50 255.70 147.90 251.80 146.00 247.50 C 144.00 243.30 142.60 238.80 141.80 234.20 C 140.20 225.00 141.00 215.40 144.20 206.60 C 147.50 197.80 152.90 190.00 159.80 183.70 C 160.60 182.90 161.50 182.20 162.40 181.40 C 163.30 180.70 164.20 179.90 165.10 179.30 L 167.90 177.30 L 170.80 175.50 C 171.80 174.90 172.80 174.30 173.80 173.80 C 174.80 173.30 175.80 172.70 176.80 172.20 C 178.90 171.20 181.00 170.20 183.20 169.50 C 191.80 166.10 201.00 164.60 210.10 164.10 C 219.20 163.80 228.40 164.60 237.30 166.60 C 239.50 167.00 241.70 167.70 243.90 168.20 C 246.10 168.90 248.30 169.50 250.40 170.20 C 254.70 171.60 258.90 173.40 263.10 175.40 C 267.20 177.40 271.20 179.60 275.00 182.20 C 278.80 184.80 282.40 187.60 285.70 191.00 C 288.90 194.40 291.80 198.20 293.50 202.80 C 293.60 203.10 293.70 203.40 293.80 203.70 L 294.00 204.60 C 294.10 205.20 294.30 205.80 294.40 206.40 C 294.50 207.70 294.70 208.90 294.70 210.20 C 294.60 211.50 294.50 212.70 294.10 214.00 C 293.70 215.30 293.10 216.60 292.30 217.70 C 291.50 218.80 290.40 219.70 289.20 220.40 C 288.00 221.10 286.80 221.50 285.50 221.80 C 283.00 222.40 280.60 222.40 278.20 222.30 C 273.50 222.00 269.00 220.90 264.60 219.60 C 260.20 218.30 256.00 216.70 251.80 215.00 C 247.60 213.20 243.50 211.40 239.50 209.30 C 238.60 208.80 238.30 207.80 238.70 206.90 C 239.20 206.00 240.20 205.70 241.10 206.10 L 241.10 206.10 C 249.00 210.00 257.20 213.50 265.60 215.90 C 269.80 217.10 274.10 218.10 278.30 218.30 C 280.40 218.40 282.50 218.30 284.40 217.80 C 286.30 217.30 287.90 216.50 288.90 215.10 C 289.90 213.80 290.40 212.00 290.40 210.00 C 290.50 209.00 290.30 208.10 290.20 207.10 C 290.10 206.60 290.00 206.10 289.80 205.70 L 289.60 205.00 C 289.50 204.80 289.40 204.50 289.30 204.30 C 287.90 200.50 285.30 197.10 282.40 194.00 C 279.40 190.90 276.00 188.20 272.40 185.80 C 268.80 183.40 265.00 181.20 261.00 179.40 C 257.00 177.50 253.00 175.90 248.80 174.50 C 246.70 173.80 244.60 173.20 242.50 172.60 C 240.40 172.10 238.30 171.50 236.10 171.10 C 227.50 169.20 218.70 168.50 210.00 168.80 C 201.30 169.30 192.60 170.80 184.60 173.90 C 180.50 175.40 176.70 177.40 173.00 179.60 L 170.30 181.30 L 167.70 183.20 C 166.80 183.80 166.00 184.50 165.20 185.20 C 164.40 185.90 163.50 186.50 162.80 187.30 C 156.40 193.10 151.40 200.30 148.40 208.30 C 145.50 216.30 144.70 225.10 146.10 233.50 C 146.80 237.70 148.10 241.80 149.90 245.70 C 151.70 249.60 154.00 253.20 156.70 256.60 C 159.40 259.90 162.40 263.00 165.90 265.60 C 169.30 268.20 173.00 270.50 176.90 272.50 C 180.80 274.40 184.90 276.00 189.00 277.00 C 193.20 278.10 197.50 278.70 201.70 278.50 C 203.80 278.40 205.90 278.10 207.80 277.50 C 209.70 276.90 211.50 276.00 212.70 274.70 C 213.90 273.40 214.70 271.70 214.80 269.90 C 214.90 268.00 214.50 266.00 213.80 264.10 C 213.50 263.10 213.00 262.20 212.50 261.20 L 210.90 258.40 C 210.40 257.40 209.80 256.50 209.20 255.60 C 208.60 254.70 208.00 253.80 207.40 252.90 C 204.90 249.40 201.80 246.20 198.70 243.10 C 195.60 240.00 192.20 237.20 188.60 234.60 C 185.10 231.90 181.30 229.50 177.50 227.40 L 177.50 227.40 C 177.10 227.20 177.00 226.70 177.20 226.30 C 177.60 225.60 178.10 225.50 178.50 225.70 Z" fill="#000000" fill-rule="nonzero" group-id="1,5,10,13" node-id="145" stroke="none" target-height="118.8" target-width="154.50002" target-x="140.2" target-y="163.8"></path></g><path d="M 289.10 198.30 C 282.00 200.00 278.90 204.70 277.50 208.00 C 276.70 209.90 274.50 210.90 272.50 210.30 L 261.30 206.90 C 258.90 206.20 257.60 203.70 258.30 201.30 C 259.20 198.10 261.40 193.80 266.40 190.10 C 271.60 186.30 277.90 186.70 277.90 186.70" fill="none" group-id="1,5,10" node-id="148" stroke="#000000" stroke-linecap="round" stroke-width="3.8942" target-height="24.59999" target-width="31.5" target-x="257.6" target-y="186.3"></path></g></g></g></svg>